<?xml version="1.0" encoding="utf-8"?>
<!-- Generator: Adobe Illustrator 13.0.0, SVG Export Plug-In . SVG Version: 6.00 Build 14948)  -->
<!DOCTYPE svg PUBLIC "-//W3C//DTD SVG 1.1//EN" "http://www.w3.org/Graphics/SVG/1.1/DTD/svg11.dtd">
<svg version="1.1" id="レイヤー_1" xmlns="http://www.w3.org/2000/svg" xmlns:xlink="http://www.w3.org/1999/xlink" x="0px"
	 y="0px" width="100px" height="100px" viewBox="0 0 100 100" enable-background="new 0 0 100 100" xml:space="preserve">
<circle fill="#B2B2B2" cx="49" cy="50" r="50"/>
<g>
	<path d="M88.686,51.2L31.179,84.162c-2.511,1.438-5.723,0.584-7.173-1.908L7.271,53.473l-1.605,0.923l17.722,30.469
		c1.449,2.493,4.661,3.347,7.172,1.909l57.505-32.963c1.735-0.995,2.68-2.819,2.625-4.674C90.243,49.969,89.569,50.692,88.686,51.2z
		"/>
	<path d="M7.022,49.369l17.72,30.471c1.451,2.493,4.661,3.347,7.172,1.906l57.508-32.96c2.511-1.44,3.368-4.628,1.923-7.12
		l-17.722-30.47L7.022,49.369z M75.057,24.851L18.218,57.428l-3.319-5.706l56.838-32.578L75.057,24.851z"/>
</g>
</svg>
