<?xml version="1.0" encoding="utf-8"?>
<!-- Generator: Adobe Illustrator 13.0.0, SVG Export Plug-In . SVG Version: 6.00 Build 14948)  -->
<!DOCTYPE svg PUBLIC "-//W3C//DTD SVG 1.1//EN" "http://www.w3.org/Graphics/SVG/1.1/DTD/svg11.dtd">
<svg version="1.1" id="レイヤー_1" xmlns="http://www.w3.org/2000/svg" xmlns:xlink="http://www.w3.org/1999/xlink" x="0px"
	 y="0px" width="100px" height="100px" viewBox="-3.841 0 100 100" enable-background="new -3.841 0 100 100" xml:space="preserve">
<circle fill="#B2B2B2" cx="46.159" cy="50" r="50"/>
<path d="M79.778,25.543c0.323,0.153,0.658,0.269,1,0.355v-0.436c-0.276-0.077-0.549-0.171-0.811-0.295
	c-2.021-0.962-3.672-3.332-5.256-7.586l-0.19-6.047c-0.01-0.304-0.266-0.54-0.584-0.534c-0.313,0.009-0.559,0.263-0.551,0.567
	l0.123,3.875H62.89l0.122-3.875c0.009-0.304-0.235-0.557-0.55-0.567c-0.314-0.008-0.575,0.229-0.585,0.534l-0.201,6.422
	C55.685,39.115,46.961,54.217,38.583,58.65c-5.357-3.089-9.436-11.409-11.574-23.84l-0.177-5.646
	c-0.007-0.232-0.217-0.427-0.445-0.407c-0.237,0.007-0.426,0.201-0.419,0.433l0.086,2.755h-8.083l0.086-2.755
	c0.008-0.231-0.179-0.426-0.419-0.433c-0.237-0.02-0.438,0.174-0.446,0.407l-0.143,4.587C14.772,41.9,12.028,49.169,9,55.3v0.925
	c0.192-0.383,0.385-0.766,0.576-1.156v16.271c-0.13,0.021-0.255,0.042-0.368,0.062c0,0,0,1.36,0,2.738
	c0.823-0.106,3.189-0.306,6.591-0.563l-0.279,8.869h-0.919c-0.604,0-1.093,0.531-1.093,1.188v1.229h17.007v-1.229
	c0-0.657-0.488-1.188-1.092-1.188h-0.92l-0.305-9.742c9.742-0.661,21.621-1.417,31.829-2.018L59.684,81.69h-1.207
	c-0.792,0-1.433,0.698-1.433,1.561v1.612h22.311v-1.614c0-0.86-0.643-1.56-1.435-1.56h-1.205L76.343,69.8
	c1.814-0.083,3.317-0.143,4.435-0.175v-4.653c-1.181-0.004-2.721,0.043-4.551,0.126c0.026-0.114,0.007-0.23-0.041-0.336L74.9,23.637
	c0.021-0.089,0.019-0.178-0.008-0.264l-0.142-4.502C76.25,22.525,77.844,24.623,79.778,25.543z M74.527,48.011l0.221,7.075
	l-5.707-3.607L74.527,48.011z M61.858,66.05c-0.183,0.015-0.366,0.029-0.551,0.044l0.013-0.384L61.858,66.05z M61.377,63.909
	l0.223-7.17l5.561,3.514L61.377,63.909z M65.644,70.36l-4.56,2.882l0.082-2.625C62.705,70.527,64.201,70.441,65.644,70.36z
	 M67.923,70.232c0.17-0.01,0.34-0.018,0.509-0.027l5.965,3.771l-6.198,3.917l-6.197-3.918L67.923,70.232z M63.708,65.906
	l-1.707-1.078l6.198-3.919l6.198,3.919l-0.628,0.396C70.86,65.388,67.44,65.622,63.708,65.906z M62.196,55.804L68,52.135
	l6.005,3.794l-5.806,3.668L62.196,55.804z M67.116,36.021l1.083-0.684l5.263,3.327l-5.263,3.446l-3.057-2
	C65.817,38.801,66.472,37.437,67.116,36.021z M64.791,39.877l-1.855-1.214l3.526-2.228C65.915,37.621,65.356,38.769,64.791,39.877z
	 M71.106,24.662l-2.906,1.836l-4.912-3.104l4.912-3.105l3.596,2.272C71.569,23.268,71.34,23.969,71.106,24.662z M72.172,22.799
	l0.941,0.595l-1.432,0.905C71.847,23.802,72.01,23.301,72.172,22.799z M69.239,27.156l1.288-0.814
	c-0.158,0.446-0.316,0.889-0.475,1.327L69.239,27.156z M73.114,30.917l-4.914,3.105l-0.158-0.1c0.683-1.593,1.345-3.245,1.987-4.954
	L73.114,30.917z M69.659,28.734c-0.641,1.711-1.302,3.364-1.982,4.958l-4.391-2.776l4.912-3.105L69.659,28.734z M73.841,47.131
	L68,50.821l-5.635-3.563l5.834-3.821L73.841,47.131z M74.47,46.216l-5.255-3.442l5.045-3.304L74.47,46.216z M74.207,37.821
	l-4.969-3.141l4.776-3.018L74.207,37.821z M73.969,30.144l-3.545-2.241c0.23-0.636,0.46-1.28,0.687-1.931l2.674-1.69L73.969,30.144z
	 M73.592,18.104l0.137,4.365l-1.21-0.765C72.886,20.524,73.243,19.323,73.592,18.104z M72.14,21.464l-2.901-1.833l4.227-2.671
	C73.039,18.494,72.599,19.995,72.14,21.464z M72.043,16.544l-3.845,2.43l-3.844-2.43H72.043z M62.845,16.904l4.314,2.727
	l-4.488,2.837L62.845,16.904z M62.615,24.282l4.545,2.874l-4.729,2.988L62.615,24.282z M62.384,31.662l4.775,3.018l-4.969,3.14
	L62.384,31.662z M62.141,39.469l2.136,1.4c-0.754,1.43-1.523,2.79-2.308,4.078L62.141,39.469z M61.943,45.78
	c0.914-1.464,1.811-3.025,2.686-4.681l2.558,1.674l-5.257,3.443L61.943,45.78z M61.865,48.256l5.097,3.222l-5.304,3.353
	L61.865,48.256z M54.476,38.947c1.275-2.705,2.498-5.62,3.658-8.723v20.307c-1.204,1.537-2.425,2.902-3.658,4.084V38.947z
	 M27.042,63.426l0.171,5.465l-1.374-0.868v-3.835L27.042,63.426z M21.22,40.873l-1.522,0.963c-0.188-0.735-0.369-1.491-0.542-2.267
	L21.22,40.873z M18.905,38.407c-0.048-0.234-0.096-0.476-0.143-0.714l3.252-2.054l3.744,2.366l-3.744,2.369L18.905,38.407z
	 M20.118,44.911l-1.851-1.169l1.276-0.807C19.728,43.613,19.921,44.27,20.118,44.911z M19.921,42.696l2.093-1.322l3.744,2.366
	l-3.744,2.368L20.67,45.26C20.409,44.438,20.16,43.583,19.921,42.696z M22.805,66.104l2.602-1.646v3.29L22.805,66.104z
	 M25.407,68.751v0.684c-1.267,0.136-2.488,0.267-3.659,0.396v-3.058l0.265-0.167L25.407,68.751z M22.013,65.603l-0.265-0.166v-5.449
	l0.113-0.073l3.545,2.24v1.304L22.013,65.603z M22.655,59.414l2.752-1.74v3.48L22.655,59.414z M21.862,58.914l-0.113-0.072v-5.383
	l0.265-0.174l2.859,1.873c0.175,0.242,0.355,0.477,0.535,0.703v0.813L21.862,58.914z M21.748,52.1v-2.661
	c0.343,0.813,0.696,1.585,1.065,2.31l-0.801,0.524L21.748,52.1z M22.786,52.779l0.425-0.279c0.166,0.305,0.332,0.602,0.504,0.887
	L22.786,52.779z M23.164,51.519c-0.497-0.982-0.968-2.05-1.416-3.197v-0.567c0-0.116-0.096-0.209-0.216-0.209
	c-0.028,0-0.053,0.006-0.076,0.016c-0.01-0.027-0.02-0.053-0.028-0.08l0.586-0.371l4.012,2.536L23.164,51.519z M21.22,46.609
	l-0.083,0.054c-0.017-0.047-0.033-0.091-0.049-0.137L21.22,46.609z M21.316,48.37v3.447l-3.314-2.17l3.06-1.935
	C21.145,47.935,21.231,48.151,21.316,48.37z M21.22,66.104l-4.408,2.786l0.171-5.465L21.22,66.104z M17.438,62.711l3.878-2.451
	v4.904L17.438,62.711z M21.316,67.045v2.832c-1.058,0.117-2.074,0.23-3.035,0.343l-0.993-0.628L21.316,67.045z M16.942,70.373
	c-0.06,0.008-0.118,0.016-0.177,0.021l0.004-0.13L16.942,70.373z M21.033,73.197l-4.445,2.809l0.08-2.494
	C17.993,73.415,19.457,73.309,21.033,73.197z M22.013,73.579l4.724,2.986l-4.724,2.985l-4.725-2.985L22.013,73.579z M17.565,56.197
	l3.751-2.455v4.826L17.565,56.197z M22.805,73.079l0.011-0.008c1.435-0.101,2.947-0.204,4.519-0.312l0.102,3.246L22.805,73.079z
	 M25.84,69.39v-0.365l0.495,0.313C26.169,69.354,26.005,69.371,25.84,69.39z M25.84,63.186v-0.757l0.599,0.379L25.84,63.186z
	 M27,62.162l-1.161-0.733V57.4l0.591-0.373c0.141,0.146,0.281,0.287,0.425,0.423L27,62.162z M25.84,56.4v-0.021
	c0.003,0.004,0.007,0.01,0.011,0.015L25.84,56.4z M25.94,55.856l0.373,0.244l-0.109,0.068C26.115,56.067,26.028,55.963,25.94,55.856
	z M26.834,56.773l0.001,0.082c-0.015-0.017-0.032-0.035-0.047-0.052L26.834,56.773z M26.79,55.4l-2.256-1.477
	c-0.333-0.519-0.657-1.068-0.973-1.651l3.068-2.009L26.79,55.4z M26.588,49.001l-3.783-2.392l3.636-2.298L26.588,49.001z
	 M26.406,43.148l-3.601-2.276l3.46-2.187L26.406,43.148z M26.089,33.062l0.133,4.235l-3.417-2.16L26.089,33.062z M24.943,32.785
	l-2.93,1.852l-2.93-1.853L24.943,32.785L24.943,32.785z M21.22,35.137l-2.634,1.665c-0.227-1.199-0.438-2.445-0.633-3.73
	L21.22,35.137z M18.401,38.089l-0.133-0.084l0.104-0.065C18.382,37.991,18.391,38.04,18.401,38.089z M17.867,35.255
	c0.106,0.608,0.213,1.208,0.327,1.796l-0.389,0.246L17.867,35.255z M17.76,38.686l0.885,0.56c0.213,0.975,0.438,1.918,0.673,2.829
	l-1.698,1.074L17.76,38.686z M17.584,44.311l2.938,1.856c0.082,0.246,0.164,0.488,0.248,0.727l-3.333,2.107L17.584,44.311z
	 M17.397,50.263l3.843,2.517L17.236,55.4L17.397,50.263z M17.186,56.96l3.883,2.454l-4.04,2.554L17.186,56.96z M13.293,70.816
	c-1.329,0.17-2.437,0.322-3.284,0.453V54.172c1.142-2.396,2.24-4.951,3.284-7.654V70.816z M15.917,69.854l-0.021,0.644
	c-0.772,0.091-1.497,0.182-2.171,0.267V45.838c0-0.076-0.045-0.139-0.107-0.176c1.207-3.192,2.336-6.582,3.377-10.148l-0.078,2.464
	c-0.023,0.074-0.026,0.149-0.007,0.225l-0.983,31.333C15.881,69.636,15.875,69.747,15.917,69.854z M16.387,82.445l0.167-5.343
	l4.667,2.95l-3.785,2.393H16.387z M19.02,82.445l2.994-1.893l2.993,1.893H19.02z M26.592,82.445l-3.786-2.393l4.666-2.95
	l0.167,5.343H26.592z M29.498,59.521v9.487c-0.475,0.049-0.946,0.097-1.412,0.146L27.745,58.23c0.581,0.463,1.18,0.852,1.798,1.17
	C29.517,59.434,29.498,59.475,29.498,59.521z M33.589,68.595c-1.242,0.125-2.462,0.247-3.658,0.37v-9.377
	c1.028,0.472,2.104,0.748,3.225,0.811c0.143,0.01,0.29,0.013,0.433,0.015V68.595z M37.68,68.192
	c-1.235,0.12-2.455,0.239-3.659,0.359v-8.145c0-0.005-0.002-0.007-0.002-0.013c1.204-0.046,2.426-0.326,3.662-0.84V68.192z
	 M37.983,58.95c-0.027-0.013-0.055-0.019-0.087-0.019c-0.097,0-0.175,0.064-0.204,0.147c-1.526,0.672-3.037,0.982-4.513,0.901
	c-1.961-0.11-3.783-0.895-5.453-2.305l-0.611-19.472c0.021-0.076,0.017-0.153-0.007-0.227l-0.01-0.328
	c2.237,10.993,6.022,18.275,10.999,21.246C38.058,58.912,38.021,58.932,37.983,58.95z M41.771,67.8
	c-1.228,0.116-2.448,0.233-3.66,0.352v-8.782c0.146-0.066,0.293-0.139,0.439-0.211c1.025,0.551,2.1,0.916,3.219,1.104L41.771,67.8
	L41.771,67.8z M41.771,59.833c-0.939-0.171-1.848-0.484-2.724-0.934c0.904-0.495,1.813-1.114,2.724-1.847V59.833z M45.862,67.421
	c-1.222,0.112-2.442,0.224-3.658,0.34v-7.43c0.233,0.028,0.469,0.052,0.706,0.065c0.199,0.012,0.397,0.018,0.596,0.018
	c0.781,0,1.567-0.09,2.356-0.26V67.421z M45.862,59.729c-0.982,0.217-1.96,0.303-2.927,0.25c-0.245-0.016-0.489-0.037-0.731-0.071
	v-3.178c0-0.009-0.005-0.016-0.005-0.024c1.221-1.032,2.444-2.273,3.664-3.723V59.729L45.862,59.729z M49.951,67.051
	c-1.216,0.108-2.435,0.219-3.658,0.329v-7.325c1.216-0.307,2.438-0.807,3.658-1.493V67.051z M49.951,58.09
	c-1.22,0.705-2.442,1.221-3.658,1.535v-7.176c0.82-1.008,1.637-2.1,2.45-3.292c0.406-0.597,0.809-1.222,1.208-1.859V58.09z
	 M54.044,66.693c-1.211,0.104-2.431,0.209-3.66,0.319v-8.7c1.225-0.732,2.447-1.65,3.66-2.74V66.693z M54.044,55.023
	c-1.213,1.118-2.434,2.06-3.66,2.811v-11.13c0-0.029-0.004-0.057-0.016-0.081c1.264-2.069,2.49-4.335,3.676-6.781V55.023z
	 M54.476,66.656V55.174c1.233-1.152,2.454-2.484,3.658-3.984v15.143c0,0.007,0.003,0.012,0.003,0.017
	C56.935,66.446,55.712,66.55,54.476,66.656z M60.212,64.756c-0.059,0.132-0.064,0.276-0.012,0.415l-0.032,1.013
	c-0.529,0.045-1.063,0.088-1.601,0.131V50.643c0.734-0.945,1.463-1.954,2.183-3.021L60.212,64.756z M58.568,49.971V29.178
	c0-0.03-0.008-0.058-0.02-0.083c1.085-2.975,2.11-6.115,3.075-9.402l-0.115,3.679c-0.023,0.087-0.028,0.177-0.01,0.267
	l-0.725,23.203C60.049,47.948,59.311,48.991,58.568,49.971z M60.821,81.689l0.219-7.007l6.12,3.868l-4.967,3.139H60.821z
	 M64.271,81.689l3.928-2.481l3.928,2.481H64.271z M75.579,81.689h-1.375l-4.966-3.139l6.122-3.868L75.579,81.689z M75.317,73.244
	l-4.971-3.142c1.766-0.095,3.398-0.179,4.864-0.249L75.317,73.244z M74.8,56.739l0.225,7.171l-5.786-3.657L74.8,56.739z"/>
</svg>
