<?xml version="1.0" encoding="utf-8"?>
<!-- Generator: Adobe Illustrator 13.0.0, SVG Export Plug-In . SVG Version: 6.00 Build 14948)  -->
<!DOCTYPE svg PUBLIC "-//W3C//DTD SVG 1.1//EN" "http://www.w3.org/Graphics/SVG/1.1/DTD/svg11.dtd">
<svg version="1.1" id="レイヤー_1" xmlns="http://www.w3.org/2000/svg" xmlns:xlink="http://www.w3.org/1999/xlink" x="0px"
	 y="0px" width="100px" height="100px" viewBox="-1.5 -30.171 100 100" enable-background="new -1.5 -30.171 100 100"
	 xml:space="preserve">
<circle fill="#B2B2B2" cx="49.5" cy="49.5" r="50"/>
<path d="M91.413,56.743c0,0-0.993-18.892-1.137-19.604c-0.143-0.71-0.853-3.479-3.479-3.479c-2.629,0-6.464,0-6.464,0l-1.705-1.49
	H63.43l-1.278,1.278c0,0-43.466,0-45.738,0c-2.273,0-3.693,0.71-4.12,2.7c-0.098,0.446-0.256,1.559-0.446,3.015l-1.969,0.394
	L7.464,39.84c0,0-0.569-0.426-0.569,0.994c0,1.421,0,4.83,0,4.83s-0.141,0.568,0.426,0.853c0.569,0.284,1.705,0.284,2.273,0
	c0.568-0.284,0.142-6.109,0.142-6.109l1.999-0.384c-0.656,5.145-1.572,13.311-1.572,13.311s-0.427,0-0.427,0.853
	c0,0.854,0,1.989,0,1.989l0.427,0.567v1.277l-0.427,0.854v2.273l2.131,0.758h13.815c0.306,2.77,2.653,4.924,5.503,4.924
	c2.853,0,5.196-2.154,5.504-4.924h29.334c0.307,2.77,2.651,4.924,5.504,4.924c2.852,0,5.197-2.154,5.502-4.924h11.258
	c0.994,0,2.271,0,2.271,0l1.563-2.18v-2.841L91.413,56.743z M15.985,51.582c0,0.283-0.188,0.663-1.326,0.663
	c-1.137,0-3.503,0-3.503,0l1.609-13.352h3.788c0,0,0.568,0.095,0.568,0.663C17.123,40.125,15.985,51.299,15.985,51.582z
	 M25.36,57.17c0,0.549-0.443,0.995-0.993,0.995H19.68c-0.55,0-0.994-0.444-0.994-0.995V40.125c0-0.55,0.444-0.995,0.994-0.995h4.688
	c0.55,0,0.993,0.444,0.993,0.995V57.17z M31.186,64.556c-1.802,0-3.268-1.466-3.268-3.267c0-1.803,1.465-3.268,3.268-3.268
	c1.802,0,3.268,1.465,3.268,3.268C34.453,63.09,32.986,64.556,31.186,64.556z M36.866,47.795c0,0.313-0.254,0.567-0.567,0.567H28.06
	c-0.313,0-0.568-0.254-0.568-0.567V39.84c0-0.314,0.256-0.569,0.568-0.569h8.239c0.313,0,0.567,0.255,0.567,0.569V47.795z
	 M48.621,47.795c0,0.313-0.255,0.567-0.568,0.567h-8.239c-0.313,0-0.568-0.254-0.568-0.567V39.84c0-0.314,0.255-0.569,0.568-0.569
	h8.239c0.313,0,0.568,0.254,0.568,0.569V47.795z M60.376,47.795c0,0.313-0.255,0.567-0.568,0.567h-8.238
	c-0.313,0-0.568-0.254-0.568-0.567V39.84c0-0.314,0.255-0.569,0.568-0.569h8.238c0.313,0,0.568,0.254,0.568,0.569V47.795z
	 M63.321,48.362c-0.313,0-0.567-0.254-0.567-0.567V39.84c0-0.314,0.255-0.569,0.567-0.569h8.24c0.313,0,0.567,0.254,0.567,0.569
	v7.955c0,0.313-0.255,0.567-0.567,0.567H63.321z M71.526,64.556c-1.803,0-3.268-1.466-3.268-3.267c0-1.803,1.465-3.268,3.268-3.268
	c1.801,0,3.268,1.465,3.268,3.268C74.794,63.09,73.328,64.556,71.526,64.556z M83.884,47.795c0,0.313-0.254,0.567-0.568,0.567
	h-8.237c-0.314,0-0.568-0.254-0.568-0.567V39.84c0-0.314,0.254-0.569,0.568-0.569h8.237c0.314,0,0.568,0.254,0.568,0.569V47.795z
	 M90.231,48.457c-0.192,0-3.789,0-3.789,0c-0.143,0-0.379,0.048-0.379-0.284c0-0.331,0-8.002,0-8.191s0-0.663,0.284-0.663h3.173
	c0.235,0,0.426,0.142,0.473,0.378l0.429,8.381C90.419,48.079,90.419,48.457,90.231,48.457z M24.367,39.982H19.68
	c-0.079,0.001-0.142,0.064-0.142,0.143V57.17c0,0.078,0.063,0.143,0.142,0.143h4.688c0.077,0,0.143-0.063,0.143-0.143V40.125
	C24.509,40.046,24.444,39.983,24.367,39.982z"/>
</svg>
