<?xml version="1.0" encoding="utf-8"?>
<!-- Generator: Adobe Illustrator 16.0.0, SVG Export Plug-In . SVG Version: 6.00 Build 0)  -->
<!DOCTYPE svg PUBLIC "-//W3C//DTD SVG 1.1//EN" "http://www.w3.org/Graphics/SVG/1.1/DTD/svg11.dtd">
<svg version="1.1" id="レイヤー_1" xmlns="http://www.w3.org/2000/svg" xmlns:xlink="http://www.w3.org/1999/xlink" x="0px"
	 y="0px" width="100px" height="100px" viewBox="0 0 100 100" enable-background="new 0 0 100 100" xml:space="preserve">
<circle fill="#B2B2B2" cx="50" cy="50" r="50"/>
<g>
	<path d="M26.093,19.009c8.943-5.954,15.016-4.872,22.261-3.248c7.248,1.625,11.578,2.314,16.99-1.279
		c-8.328,5.75-15.768,5.828-19.625,4.526c-3.858-1.303-5.598-1.468-10.534-1.921C30.247,16.635,26.093,19.009,26.093,19.009z"/>
	<path d="M28.74,61.254v-4.078v-0.584V54.42v-3.654v-2.173V44.94v-2.173v-3.655V36.94v-3.655v-2.172v-3.655v-2.173v-1.546v-2.063
		c0-0.326-1.64-0.591-3.663-0.591c-2.022,0-3.662,0.265-3.662,0.591v2.064v1.545v2.172v3.656v2.172v3.654v2.172v3.655v2.173v3.653
		v2.174v3.653v2.172v1.545v23.382h7.325h50.043V65.455h1.804v-4.201H28.74z M28.379,56.592h-6.604V54.42h6.604V56.592z
		 M28.379,50.766h-6.604v-2.173h6.604V50.766z M28.379,44.939h-6.604v-2.173h6.604V44.939z M28.379,39.112h-6.604V36.94h6.604
		V39.112z M28.379,33.285h-6.604v-2.172h6.604V33.285z M28.379,27.458h-6.604v-2.173h6.604V27.458z M31.637,70.146h-1.444V67.84
		h1.444V70.146z M38.372,70.146h-1.443V67.84h1.443V70.146z M45.108,70.146h-1.443V67.84h1.443V70.146z M51.842,70.146h-1.441V67.84
		h1.441V70.146z M58.578,70.146h-1.444V67.84h1.444V70.146z M65.313,70.146H63.87V67.84h1.442V70.146z M72.049,70.146h-1.443V67.84
		h1.443V70.146z"/>
</g>
</svg>
