<?xml version="1.0" encoding="utf-8"?>
<!-- Generator: Adobe Illustrator 16.0.0, SVG Export Plug-In . SVG Version: 6.00 Build 0)  -->
<!DOCTYPE svg PUBLIC "-//W3C//DTD SVG 1.1//EN" "http://www.w3.org/Graphics/SVG/1.1/DTD/svg11.dtd">
<svg version="1.1" id="レイヤー_1" xmlns="http://www.w3.org/2000/svg" xmlns:xlink="http://www.w3.org/1999/xlink" x="0px"
	 y="0px" width="100px" height="100px" viewBox="0 0 100 100" enable-background="new 0 0 100 100" xml:space="preserve">
<circle fill="#B1B0B1" cx="50" cy="50" r="50"/>
<path fill="#231815" d="M89.935,63.551c0.041-1.49-0.05-2.119-0.055-2.151c-0.004-0.028-0.013-0.052-0.027-0.074
	c-0.15-0.243-14.941-24.06-19.253-30.676c1.413-4.966,2.671-9.417,3.261-11.543c0.371,0.023,0.732-0.232,0.993-1.07
	c0.31-0.989,0.201-1.902-0.239-2.04c-0.439-0.137-1.046,0.554-1.355,1.543c-0.261,0.837-0.108,1.253,0.212,1.445
	c-0.717,2.063-2.188,6.368-3.825,11.194c-11.556-2.717-24.403-1.91-27.818,5.974c-4.319-2.728-10.872-4.23-18.496-4.23
	c-4.505,0-9.071,0.544-12.859,1.532c-0.059,0.016-0.108,0.058-0.132,0.115c-0.023,0.055-0.021,0.12,0.009,0.173l3.188,5.772
	l-2.008,1.107c-0.01,0.005-0.017,0.014-0.024,0.021c-0.01,0.008-0.02,0.015-0.027,0.024c-0.01,0.011-0.017,0.022-0.022,0.035
	c-0.005,0.009-0.012,0.018-0.017,0.029c-0.004,0.015-0.006,0.031-0.007,0.048c-0.001,0.008-0.005,0.016-0.005,0.025l0.171,5.15
	l-1.995,0.66l16.079,30.415c0,0,25.075-7.111,30.755-7.645c-0.977,3.136-1.718,5.51-1.839,5.897
	c-0.407,1.306-1.916,4.499-0.05,5.081c1.868,0.582,2.443-2.902,2.85-4.209c0.126-0.402,0.916-2.936,1.947-6.244
	c1.315,0.109,2.563-0.316,3.147-1.434c0.86-1.645,28.523-2.932,28.523-2.932L89.935,63.551z M89.245,61.098
	c-10.097-2.807-22.917-1.182-27.848,2.219c1.927-6.176,3.82-12.25,3.82-12.25l-0.463-0.145c0.989-3.297,3.511-12.074,5.702-19.768
	C74.639,37.601,87.232,57.859,89.245,61.098z M70.363,30.356c-0.004-0.002-0.008-0.007-0.013-0.009
	c0.003,0.009,0.003,0.02,0.008,0.029c-2.205,7.762-4.815,16.878-5.893,20.456l-0.647-0.203l-0.648-0.201
	c1.578-4.897,6.739-20.099,9.405-27.89C71.966,24.704,71.192,27.436,70.363,30.356z M69.518,30.555
	c-2.593,7.64-5.564,16.466-6.637,19.783l-0.464-0.145c0,0-2.26,7.25-4.353,13.963c-8.553-13.822-15.334-26.6-15.929-27.723
	C45.355,28.697,58.415,27.963,69.518,30.555z M10.818,33.773c3.707-0.939,8.139-1.455,12.513-1.455
	c7.637,0,14.179,1.512,18.433,4.258c0.465,0.882,7.404,13.982,16.144,28.083c-0.06,0.191-0.119,0.381-0.178,0.572
	c-2.573-1.428-6.221-2.18-10.719-2.18c-7.001,0-14.143,1.752-18.215,3.277L13.979,39.496L10.818,33.773z M13.729,39.86
	l14.804,26.812c0.036,0.064,0.104,0.104,0.174,0.104c0.023,0,0.047-0.006,0.071-0.014c4.01-1.528,11.191-3.313,18.233-3.313
	c4.479,0,8.081,0.753,10.597,2.176c-0.021,0.066-0.042,0.133-0.063,0.2c-13.956-4.048-24.786,1.253-30.198,3.976
	c-1.129-2.039-12.188-22.044-15.464-28.923L13.729,39.86z M26.742,74.757c-0.932-1.774-8.002-15.196-14.698-27.286l-0.19-5.743
	c3.813,7.809,15.12,28.218,15.237,28.431c0.036,0.065,0.104,0.103,0.174,0.103c0.029,0,0.061-0.007,0.089-0.021
	c5.307-2.67,16.118-8.079,30.072-4.037c-0.193,0.621-0.383,1.231-0.567,1.822C46.136,66.818,34.883,69.285,26.742,74.757z
	 M89.5,64.499c-6.374-1.577-21.163-1.993-29.363,4.001c-0.112-0.021-0.226-0.035-0.338-0.055c0.443-1.421,0.915-2.936,1.391-4.46
	c0.137-0.107,0.252-0.22,0.404-0.325c4.796-3.334,17.998-4.955,27.908-2.076C89.532,61.893,89.592,62.801,89.5,64.499z"/>
</svg>
