<?xml version="1.0" encoding="utf-8"?>
<!-- Generator: Adobe Illustrator 16.0.0, SVG Export Plug-In . SVG Version: 6.00 Build 0)  -->
<!DOCTYPE svg PUBLIC "-//W3C//DTD SVG 1.1//EN" "http://www.w3.org/Graphics/SVG/1.1/DTD/svg11.dtd">
<svg version="1.1" id="レイヤー_1" xmlns="http://www.w3.org/2000/svg" xmlns:xlink="http://www.w3.org/1999/xlink" x="0px"
	 y="0px" width="100px" height="100px" viewBox="0 0 100 100" enable-background="new 0 0 100 100" xml:space="preserve">
<circle fill="#B2B2B2" cx="50" cy="50" r="50"/>
<g>
	<rect x="41.548" y="13.76" width="16.904" height="11.9"/>
	<polygon points="43.814,13.078 57.509,13.078 43.814,8.922 	"/>
	<path d="M30.345,30.173h-4.429v4.429C28.362,34.602,30.345,32.619,30.345,30.173z"/>
	<g>
		<path d="M74.084,34.896v-4.724h-4.725C69.359,32.781,71.477,34.896,74.084,34.896z"/>
		<path d="M67.909,30.173H31.704c0,3.197-2.593,5.789-5.788,5.789v49.767h48.168v-49.38C70.674,36.348,67.909,33.583,67.909,30.173z
			"/>
	</g>
	<polygon points="68.984,21.048 60.167,21.048 60.167,27.067 39.833,27.067 39.833,21.048 31.015,21.048 26.701,28.567 
		73.298,28.567 	"/>
</g>
</svg>
