<?xml version="1.0" encoding="utf-8"?>
<!-- Generator: Adobe Illustrator 13.0.0, SVG Export Plug-In . SVG Version: 6.00 Build 14948)  -->
<!DOCTYPE svg PUBLIC "-//W3C//DTD SVG 1.1//EN" "http://www.w3.org/Graphics/SVG/1.1/DTD/svg11.dtd">
<svg version="1.1" id="レイヤー_1" xmlns="http://www.w3.org/2000/svg" xmlns:xlink="http://www.w3.org/1999/xlink" x="0px"
	 y="0px" width="100px" height="100px" viewBox="-1 -2.978 100 100" enable-background="new -1 -2.978 100 100"
	 xml:space="preserve">
<circle fill="#B2B2B2" cx="49" cy="47.022" r="50"/>
<g>
	<g>
		<path d="M46.223,74.383c-1.071,0-1.938,0.866-1.938,1.936c0,1.07,0.867,1.936,1.938,1.936c1.069,0,1.936-0.865,1.936-1.936
			C48.159,75.249,47.292,74.383,46.223,74.383z M46.223,77.244c-0.513,0-0.928-0.414-0.928-0.926c0-0.511,0.415-0.927,0.928-0.927
			c0.511,0,0.926,0.416,0.926,0.927C47.148,76.83,46.733,77.244,46.223,77.244z"/>
		<path d="M46.223,72.926c-1.874,0-3.394,1.518-3.394,3.393c0,1.874,1.52,3.393,3.394,3.393c1.873,0,3.392-1.519,3.392-3.393
			C49.614,74.443,48.096,72.926,46.223,72.926z M46.223,78.703c-1.317,0-2.385-1.066-2.385-2.385c0-1.315,1.067-2.384,2.385-2.384
			c1.315,0,2.383,1.067,2.383,2.384C48.605,77.636,47.539,78.703,46.223,78.703z"/>
		<path d="M73.023,74.383c-1.069,0-1.937,0.866-1.937,1.936c0,1.07,0.867,1.936,1.937,1.936c1.07,0,1.937-0.865,1.937-1.936
			C74.96,75.249,74.094,74.383,73.023,74.383z M73.023,77.244c-0.512,0-0.929-0.414-0.929-0.926c0-0.511,0.417-0.927,0.929-0.927
			c0.511,0,0.927,0.416,0.927,0.927C73.95,76.83,73.534,77.244,73.023,77.244z"/>
		<path d="M73.023,72.926c-1.875,0-3.394,1.518-3.394,3.393c0,1.874,1.519,3.393,3.394,3.393c1.874,0,3.392-1.519,3.392-3.393
			C76.414,74.443,74.896,72.926,73.023,72.926z M73.023,78.703c-1.316,0-2.384-1.066-2.384-2.385c0-1.315,1.065-2.384,2.384-2.384
			c1.315,0,2.383,1.067,2.383,2.384C75.405,77.636,74.339,78.703,73.023,78.703z"/>
		<polygon points="49.313,72.932 54.513,72.932 54.513,76.891 51.099,76.891 		"/>
		<rect x="55.444" y="72.926" width="12.107" height="2.477"/>
		<path d="M42.108,75.96h-5.083c-0.539,0-0.99-0.388-1.07-0.922l-0.016-1.695c0-0.6,0.487-1.088,1.086-1.088
			c0.086,0,0.155,0.069,0.155,0.156v2.436h4.929c0.085,0,0.155,0.07,0.155,0.156v0.802C42.263,75.891,42.194,75.96,42.108,75.96z
			 M36.87,72.581c-0.354,0.072-0.621,0.388-0.621,0.761l0.015,1.674c0.057,0.357,0.377,0.635,0.762,0.635h4.928v-0.493h-4.928
			c-0.086,0-0.155-0.068-0.155-0.154V72.581z"/>
		<path d="M50.641,56.945c0,0.408-0.332,0.741-0.74,0.741h-1.95c-0.409,0-0.741-0.333-0.741-0.741l0,0
			c0-0.409,0.332-0.742,0.741-0.742h1.95C50.309,56.203,50.641,56.534,50.641,56.945L50.641,56.945z"/>
		<path d="M48.925,56.619c0,0.589-0.478,1.067-1.067,1.067h-2.803c-0.589,0-1.066-0.479-1.066-1.067l0,0
			c0-0.587,0.477-1.065,1.066-1.065h2.803C48.447,55.554,48.925,56.032,48.925,56.619L48.925,56.619z"/>
		<path d="M54.696,57.104c0,0.258-0.209,0.465-0.466,0.465H53.01c-0.256,0-0.466-0.207-0.466-0.465l0,0
			c0-0.255,0.21-0.464,0.466-0.464h1.221C54.487,56.641,54.696,56.849,54.696,57.104L54.696,57.104z"/>
		<path d="M85.791,55.256v-0.621h-0.676h-0.62h-2.041h-0.62h-2.041h-0.62h-2.04h-0.621H74.47h-0.618h-2.041h-0.621h-2.04h-0.62
			h-2.042h-0.62h-2.042h-0.62h-2.04h-0.62h-1.929v0.621h1.929v3.28h-1.929v0.621h27.175v-0.621h-0.676v-3.28H85.791z M81.834,55.256
			v3.28h-2.041v-3.28H81.834z M79.173,55.256v3.28h-2.04v-3.28H79.173z M76.512,55.256v3.28H74.47v-3.28H76.512z M73.851,55.256
			v3.28H71.81v-3.28H73.851z M71.189,55.256v3.28h-2.04v-3.28H71.189z M68.528,55.256v3.28h-2.041v-3.28H68.528z M65.867,55.256
			v3.28h-2.042v-3.28H65.867z M61.165,55.256h2.04v3.28h-2.04V55.256z M84.495,58.536h-2.041v-3.28h2.041V58.536z"/>
		<path d="M85.721,73.424c-0.008-0.011-0.017-0.021-0.046-0.048c-0.195-0.185-0.447-0.285-0.713-0.285h-1.007
			c-0.571,0-1.036,0.465-1.036,1.035v0.573h1.471v1.175h-6.323c-0.227-2.604-2.415-4.623-5.043-4.623s-4.814,2.02-5.044,4.623
			H55.366c-0.085,0-0.155,0.07-0.155,0.155v0.863c0,0.085,0.07,0.156,0.155,0.156h13.765c0.085,0,0.155-0.071,0.155-0.156v-0.631
			c0.031-2.029,1.707-3.682,3.735-3.682c2.034,0,3.709,1.656,3.737,3.688v0.625c0,0.085,0.069,0.156,0.155,0.156h8.929
			c0.086,0,0.154-0.071,0.154-0.156v-0.02v-0.845v-1.905C85.998,73.865,85.898,73.614,85.721,73.424z M85.688,75.485v0.388v0.312
			v0.24v0.31h-8.618v-0.47c-0.03-2.203-1.845-3.995-4.048-3.995c-2.197,0-4.014,1.788-4.047,3.99v0.475H55.521v-0.55h12.603
			c0.082,0,0.15-0.064,0.154-0.147c0.147-2.509,2.231-4.477,4.745-4.477c2.512,0,4.595,1.967,4.743,4.477
			c0.006,0.083,0.073,0.147,0.155,0.147h6.777v-0.312v-0.388v-1.097h-1.47v-0.264c0-0.399,0.326-0.725,0.726-0.725h1.008
			c0.185,0,0.361,0.069,0.51,0.208l0.019,0.025c0.127,0.135,0.196,0.311,0.196,0.491V75.485z"/>
		<path d="M80.536,66.393c0-1.014-1.02-2.9-2.967-2.9c-1.08,0-2.023,0.359-2.655,1.009c-0.529,0.544-0.795,1.26-0.771,2.069
			c0.029,0.982,0.377,1.872,0.942,2.562c0.773,0.188,1.603,0.327,2.483,0.327C80.002,69.459,80.536,67.243,80.536,66.393z"/>
		<g>
			<rect x="60.525" y="61.779" width="8.567" height="4.052"/>
			<path d="M84.116,68.236h-0.033v-7.035c0-0.485-0.394-0.882-0.88-0.882h-23.31c-0.485,0-0.878,0.396-0.878,0.882v10.378
				c0,0.486,0.393,0.881,0.878,0.881h8.726c1.074-1.224,2.647-2,4.402-2c2.929,0,5.348,2.15,5.784,4.956h3.583
				c0-0.311,0-0.596,0-0.93c0-1.023,0.729-1.875,1.694-2.067v-1.283h0.032c0.486,0,0.881-0.393,0.881-0.88v-1.141
				C84.996,68.631,84.602,68.236,84.116,68.236z M60.214,65.986v-4.364c0-0.086,0.07-0.155,0.156-0.155h8.877
				c0.086,0,0.156,0.069,0.156,0.155v4.364c0,0.085-0.07,0.155-0.156,0.155H60.37C60.284,66.142,60.214,66.073,60.214,65.986z
				 M78.154,71.642c-1.434,0-2.725-0.604-3.643-1.578c-0.456-0.12-0.884-0.25-1.279-0.368c-0.792-0.239-1.477-0.443-2.011-0.468
				c-0.986-0.043-1.863,0.006-2.545,0.136l0.063,0.14c0.083,0.187-0.001,0.405-0.188,0.489l-3.168,1.41
				c-0.188,0.084-0.405,0-0.489-0.185l-0.603-1.351c-0.082-0.189,0.001-0.406,0.188-0.49l3.17-1.412
				c0.186-0.082,0.405,0.002,0.487,0.188l0.105,0.24c1.049-0.241,2.268-0.241,3.025-0.207c0.665,0.028,1.404,0.253,2.264,0.512
				c0.022,0.007,0.045,0.013,0.066,0.018c-0.3-0.64-0.477-1.354-0.5-2.114c-0.032-1.098,0.337-2.075,1.065-2.827
				c0.828-0.854,2.039-1.327,3.404-1.327c2.484,0,4.011,2.297,4.011,3.945c0,1.651-1.068,4.109-4.011,4.109
				c-0.101,0-0.202,0-0.303-0.005c0.285,0.067,0.584,0.102,0.889,0.102c2.398,0,4.206-1.809,4.206-4.206
				c0-2.438-1.769-4.21-4.206-4.21h-0.168c-0.119,0.084-0.263,0.133-0.418,0.133c-0.405,0-0.733-0.328-0.733-0.734
				c0-0.405,0.328-0.734,0.733-0.734c0.24,0,0.452,0.116,0.586,0.293c2.993,0,5.251,2.258,5.251,5.252
				C83.405,69.335,81.099,71.642,78.154,71.642z"/>
		</g>
		<path d="M58.185,60.584c0-1.07,0.012-0.991-0.992-0.991c-0.081,0-0.255,0-0.507,0v-1.261c0,0-10.321,0-11.719,0
			c-0.876,0-1.997,0.722-2.71,1.261c-1.3,0-2.216,0-2.45,0c-1.073,0-1.662,1.083-1.824,1.619c-1.37,4.565-1.164,10.464-1.164,10.464
			l0.756-0.309v3.014h4.916c0.54-0.94,1.538-2.274,3.733-2.274c1.391,0,2.354,0.473,2.354,0.473h8.266
			c1.034-0.229,1.238-0.281,1.343-0.903C58.29,71.056,58.185,61.658,58.185,60.584z M45.947,67.868h-1.944
			c-0.152,0-0.275-0.123-0.275-0.275s0.124-0.276,0.275-0.276h1.944c0.153,0,0.276,0.124,0.276,0.276S46.1,67.868,45.947,67.868z
			 M46.223,65.538l-8.241,1.235c0.146-1.445,0.397-3.038,0.83-4.477c0.14-0.468,0.653-1.41,1.587-1.41c0.205,0,1.001,0,2.131,0
			c0.023-0.016,0.048-0.035,3.693-0.051V65.538z M47.518,65.47v-4.603h9.089v4.603H47.518z M56.417,67.868h-1.946
			c-0.15,0-0.274-0.123-0.274-0.276c0-0.151,0.124-0.275,0.274-0.275h1.946c0.152,0,0.275,0.124,0.275,0.275
			C56.692,67.745,56.569,67.868,56.417,67.868z"/>
	</g>
	<g>
		<path d="M38.516,28.763c-0.201,1.616-0.201,3.635-1.615,4.645c0.202-5.05-1.01-10.502-3.838-14.945
			c-0.606,1.212-0.403,2.625-0.403,3.838c-1.01-3.434-4.039-7.676-6.665-10.301c0,2.423,0.202,5.049-0.808,7.472
			c-1.01,2.828-3.231,4.847-4.04,7.675c-0.202-1.212-0.403-2.424-1.01-3.434c-0.605,6.26-8.078,11.714-5.654,18.176
			c2.425,6.061,10.502,8.231,17.637,6.759c4.242-1.011,6.6-1.508,8.417-6.153C42.151,37.85,39.728,33.004,38.516,28.763z
			 M27.628,46.835c-2.466,0.189-5.31-1.139-6.448-3.414c-1.517-3.603,1.517-6.257,3.793-8.533c-0.948,1.138-1.518,2.655-0.759,3.982
			c0.19-1.706,3.034-2.465,3.603-4.739c0.378-1.707-0.379-3.225-0.759-4.741c2.016,2.617,3.981,5.12,3.981,9.102
			c0.57-0.947,0.76-1.896,0.76-2.844C35.783,40.768,32.605,46.853,27.628,46.835z"/>
	</g>
	<g>
		<path d="M62.414,25.94c-0.132,1.06-0.132,2.385-1.061,3.047c0.134-3.312-0.662-6.89-2.518-9.805
			c-0.398,0.795-0.265,1.723-0.265,2.518c-0.663-2.252-2.65-5.035-4.373-6.756c0,1.589,0.134,3.312-0.529,4.902
			c-0.663,1.855-2.12,3.181-2.649,5.036c-0.132-0.795-0.266-1.589-0.663-2.252c-0.397,4.107-5.299,7.685-3.71,11.925
			c1.592,3.975,6.891,5.4,11.573,4.434c2.781-0.663,4.329-0.988,5.521-4.036C64.8,31.902,63.209,28.723,62.414,25.94z
			 M55.271,37.797c-1.617,0.125-3.484-0.747-4.229-2.24c-0.996-2.363,0.995-4.105,2.488-5.598c-0.623,0.747-0.995,1.742-0.499,2.612
			c0.125-1.119,1.991-1.617,2.364-3.11c0.248-1.12-0.25-2.115-0.498-3.11c1.323,1.717,2.612,3.359,2.612,5.972
			c0.375-0.622,0.498-1.244,0.498-1.865C60.621,33.816,58.535,37.809,55.271,37.797z"/>
	</g>
</g>
</svg>
