<?xml version="1.0" encoding="utf-8"?>
<!-- Generator: Adobe Illustrator 13.0.0, SVG Export Plug-In . SVG Version: 6.00 Build 14948)  -->
<!DOCTYPE svg PUBLIC "-//W3C//DTD SVG 1.1//EN" "http://www.w3.org/Graphics/SVG/1.1/DTD/svg11.dtd">
<svg version="1.1" id="レイヤー_1" xmlns="http://www.w3.org/2000/svg" xmlns:xlink="http://www.w3.org/1999/xlink" x="0px"
	 y="0px" width="100px" height="100px" viewBox="-2 -25.454 100 100" enable-background="new -2 -25.454 100 100"
	 xml:space="preserve">
<circle fill="#B2B2B2" cx="49" cy="49.5" r="50"/>
<g>
	<path d="M25.05,61.449c-1.774,0-3.213,1.438-3.213,3.215c0,1.773,1.438,3.211,3.213,3.211c1.774,0,3.212-1.438,3.212-3.211
		C28.262,62.889,26.824,61.449,25.05,61.449z M25.05,66.199c-0.848,0-1.537-0.688-1.537-1.535c0-0.851,0.688-1.539,1.537-1.539
		c0.848,0,1.536,0.688,1.536,1.539C26.587,65.512,25.898,66.199,25.05,66.199z"/>
	<path d="M25.05,59.039c-3.107,0-5.625,2.516-5.625,5.625c0,3.105,2.518,5.623,5.625,5.623c3.106,0,5.625-2.518,5.625-5.623
		C30.675,61.555,28.157,59.039,25.05,59.039z M25.05,68.614c-2.183,0-3.953-1.769-3.953-3.95c0-2.184,1.77-3.953,3.953-3.953
		c2.182,0,3.952,1.771,3.952,3.953C29.001,66.846,27.232,68.614,25.05,68.614z"/>
	<path d="M69.485,61.449c-1.773,0-3.211,1.438-3.211,3.215c0,1.773,1.438,3.211,3.211,3.211s3.213-1.438,3.213-3.211
		C72.698,62.889,71.261,61.449,69.485,61.449z M69.485,66.199c-0.848,0-1.536-0.688-1.536-1.535c0-0.851,0.688-1.539,1.536-1.539
		c0.85,0,1.537,0.688,1.537,1.539C71.022,65.512,70.335,66.199,69.485,66.199z"/>
	<path d="M69.485,59.039c-3.105,0-5.625,2.516-5.625,5.625c0,3.105,2.52,5.623,5.625,5.623c3.106,0,5.623-2.518,5.623-5.623
		C75.108,61.555,72.593,59.039,69.485,59.039z M69.485,68.614c-2.184,0-3.952-1.769-3.952-3.95c0-2.184,1.771-3.953,3.952-3.953
		c2.184,0,3.951,1.771,3.951,3.953C73.437,66.846,71.669,68.614,69.485,68.614z"/>
	<polygon points="30.175,59.049 38.796,59.049 38.796,65.611 33.135,65.611 	"/>
	<rect x="40.341" y="59.039" width="20.075" height="4.105"/>
	<path d="M18.23,64.067H9.801c-0.892,0-1.639-0.642-1.775-1.526L7.999,59.73c0-0.995,0.809-1.805,1.802-1.805
		c0.142,0,0.257,0.115,0.257,0.258v4.039h8.172c0.142,0,0.257,0.115,0.257,0.259v1.33C18.487,63.953,18.372,64.067,18.23,64.067z
		 M9.543,58.467c-0.587,0.121-1.029,0.641-1.029,1.263L8.537,62.5c0.094,0.596,0.626,1.055,1.263,1.055h8.172V62.74H9.801
		c-0.142,0-0.257-0.115-0.257-0.258L9.543,58.467L9.543,58.467z"/>
	<path d="M32.378,32.541c0,0.679-0.552,1.229-1.23,1.229h-3.232c-0.679,0-1.23-0.55-1.23-1.229l0,0c0-0.679,0.551-1.229,1.23-1.229
		h3.232C31.826,31.312,32.378,31.861,32.378,32.541L32.378,32.541z"/>
	<path d="M29.532,32.002c0,0.977-0.792,1.768-1.769,1.768h-4.647c-0.977,0-1.769-0.791-1.769-1.768l0,0
		c0-0.977,0.792-1.769,1.769-1.769h4.647C28.74,30.233,29.532,31.025,29.532,32.002L29.532,32.002z"/>
	<path d="M39.101,32.807c0,0.426-0.346,0.771-0.771,0.771h-2.025c-0.426,0-0.771-0.344-0.771-0.771l0,0
		c0-0.426,0.346-0.771,0.771-0.771h2.025C38.755,32.037,39.101,32.381,39.101,32.807L39.101,32.807z"/>
	<path d="M90.653,29.741v-1.029h-1.116h-1.029h-3.384h-1.029h-3.381h-1.029H76.3h-1.027h-3.385h-1.029h-3.381h-1.029h-3.383h-1.029
		h-3.383h-1.028h-3.386h-1.028h-3.384h-1.029h-3.197v1.029h3.197v5.438h-3.197v1.029h45.056v-1.029h-1.118v-5.438H90.653z
		 M84.095,29.741v5.438h-3.381v-5.438H84.095z M79.683,29.741v5.438H76.3v-5.438H79.683z M75.271,29.741v5.438h-3.383v-5.438H75.271
		z M70.856,29.741v5.438h-3.381v-5.438H70.856z M66.446,29.741v5.438h-3.383v-5.438H66.446z M62.033,29.741v5.438h-3.382v-5.438
		H62.033z M57.622,29.741v5.438h-3.385v-5.438H57.622z M49.826,29.741h3.384v5.438h-3.384V29.741z M88.508,35.179h-3.384v-5.438
		h3.384V35.179z"/>
	<path d="M90.541,59.86c-0.015-0.017-0.028-0.034-0.076-0.077c-0.323-0.307-0.743-0.474-1.183-0.474H87.61
		c-0.947,0-1.719,0.769-1.719,1.715v0.952h2.438v1.945H77.849c-0.377-4.315-4.006-7.664-8.363-7.664
		c-4.356,0-7.981,3.349-8.358,7.664H40.212c-0.142,0-0.258,0.115-0.258,0.258v1.432c0,0.143,0.116,0.258,0.258,0.258h22.822
		c0.143,0,0.258-0.115,0.258-0.258v-1.043c0.053-3.367,2.83-6.105,6.193-6.105c3.371,0,6.15,2.744,6.197,6.111v1.037
		c0,0.143,0.114,0.258,0.258,0.258h14.803c0.143,0,0.258-0.115,0.258-0.258V65.58v-1.398v-3.156
		C90.999,60.594,90.837,60.18,90.541,59.86z M90.485,63.277v0.646v0.516v0.398v0.515H76.196V64.57
		c-0.051-3.652-3.063-6.623-6.711-6.623c-3.645,0-6.654,2.967-6.709,6.618v0.789H40.47v-0.915h20.895
		c0.136,0,0.249-0.107,0.258-0.242c0.243-4.162,3.699-7.423,7.864-7.423c4.166,0,7.621,3.261,7.865,7.423
		c0.01,0.135,0.123,0.242,0.258,0.242h11.236v-0.516v-0.646v-1.814H86.41v-0.437c0-0.664,0.538-1.203,1.2-1.203h1.674
		c0.307,0,0.602,0.119,0.843,0.347l0.034,0.043c0.211,0.224,0.324,0.513,0.324,0.813V63.277L90.485,63.277z"/>
	<path d="M81.942,48.204c0-1.677-1.688-4.807-4.918-4.807c-1.791,0-3.354,0.595-4.402,1.673c-0.877,0.904-1.318,2.091-1.277,3.432
		c0.049,1.627,0.627,3.099,1.563,4.247c1.283,0.311,2.656,0.543,4.117,0.543C81.062,53.289,81.942,49.619,81.942,48.204z"/>
	<g>
		<rect x="48.767" y="40.555" width="14.205" height="6.721"/>
		<path d="M87.88,51.264h-0.056V39.597c0-0.806-0.654-1.459-1.459-1.459H47.72c-0.807,0-1.46,0.653-1.46,1.459v17.208
			c0,0.809,0.653,1.459,1.46,1.459h14.466c1.781-2.028,4.387-3.315,7.299-3.315c4.855,0,8.869,3.563,9.591,8.218h5.94
			c0-0.515,0-0.988,0-1.543c0-1.695,1.207-3.106,2.809-3.43v-2.124h0.056c0.806,0,1.458-0.653,1.458-1.46v-1.887
			C89.338,51.918,88.687,51.264,87.88,51.264z M48.252,47.532v-7.235c0-0.143,0.114-0.258,0.257-0.258h14.719
			c0.144,0,0.258,0.115,0.258,0.258v7.235c0,0.142-0.114,0.257-0.258,0.257H48.509C48.366,47.79,48.252,47.674,48.252,47.532z
			 M77.996,56.908c-2.379,0-4.519-0.998-6.04-2.617c-0.755-0.197-1.465-0.41-2.12-0.606c-1.313-0.396-2.448-0.736-3.333-0.777
			c-1.641-0.073-3.092,0.009-4.22,0.226l0.103,0.231c0.139,0.31-0.002,0.673-0.312,0.81l-5.257,2.34
			c-0.307,0.14-0.672,0-0.809-0.309l-0.994-2.238c-0.141-0.31,0-0.672,0.309-0.812l5.255-2.34c0.312-0.14,0.673,0,0.812,0.312
			l0.174,0.395c1.737-0.396,3.762-0.396,5.017-0.342c1.101,0.049,2.331,0.418,3.756,0.848c0.036,0.012,0.071,0.021,0.104,0.032
			c-0.496-1.06-0.789-2.246-0.825-3.505c-0.054-1.82,0.558-3.442,1.767-4.689c1.376-1.417,3.383-2.197,5.645-2.197
			c4.119,0,6.649,3.807,6.649,6.538c0,2.74-1.772,6.817-6.649,6.817c-0.168,0-0.336-0.004-0.502-0.012
			c0.475,0.111,0.969,0.17,1.474,0.17c3.976,0,6.976-3,6.976-6.975c0-4.041-2.935-6.975-6.976-6.975H77.72
			c-0.197,0.137-0.437,0.216-0.693,0.216c-0.672,0-1.215-0.544-1.215-1.217c0-0.671,0.543-1.216,1.215-1.216
			c0.398,0,0.748,0.191,0.973,0.486c4.963,0,8.706,3.743,8.706,8.705C86.702,53.084,82.878,56.908,77.996,56.908z"/>
	</g>
	<path d="M44.884,38.578c0-1.779,0.02-1.646-1.646-1.646c-0.133,0-0.422,0-0.839,0v-2.087c0,0-17.114,0-19.43,0
		c-1.454,0-3.313,1.196-4.496,2.087c-2.154,0-3.673,0-4.063,0c-1.78,0-2.756,1.797-3.023,2.688
		c-2.274,7.568-1.931,17.35-1.931,17.35l1.253-0.516v4.998h8.149c0.896-1.557,2.55-3.771,6.19-3.771
		c2.306,0,3.903,0.783,3.903,0.783h13.703c1.717-0.379,2.054-0.465,2.229-1.494C45.06,55.94,44.884,40.355,44.884,38.578z
		 M24.593,50.652h-3.224c-0.252,0-0.458-0.205-0.458-0.458s0.205-0.457,0.458-0.457h3.224c0.252,0,0.458,0.204,0.458,0.457
		C25.05,50.447,24.846,50.652,24.593,50.652z M25.05,46.792l-13.662,2.047c0.243-2.397,0.658-5.035,1.376-7.423
		c0.233-0.774,1.082-2.337,2.631-2.337c0.338,0,1.661,0,3.535,0c0.037-0.028,0.08-0.059,6.122-0.087L25.05,46.792L25.05,46.792z
		 M27.2,46.674v-7.631h15.071v7.631H27.2z M41.952,50.65h-3.223c-0.252,0-0.458-0.203-0.458-0.457c0-0.252,0.206-0.456,0.458-0.456
		h3.223c0.254,0,0.457,0.204,0.457,0.456C42.409,50.447,42.206,50.65,41.952,50.65z"/>
</g>
</svg>
