<?xml version="1.0" encoding="utf-8"?>
<!-- Generator: Adobe Illustrator 13.0.0, SVG Export Plug-In . SVG Version: 6.00 Build 14948)  -->
<!DOCTYPE svg PUBLIC "-//W3C//DTD SVG 1.1//EN" "http://www.w3.org/Graphics/SVG/1.1/DTD/svg11.dtd">
<svg version="1.1" id="レイヤー_1" xmlns="http://www.w3.org/2000/svg" xmlns:xlink="http://www.w3.org/1999/xlink" x="0px"
	 y="0px" width="100px" height="100px" viewBox="-2 -14.395 100 100" enable-background="new -2 -14.395 100 100"
	 xml:space="preserve">
<circle fill="#B2B2B2" cx="49" cy="49.5" r="50"/>
<g>
	<g>
		<path d="M65.514,32.941l-6.936-4.066c0.539-0.918,2.348-4.002,2.781-4.788c1.992-3.598,3.389-4.014,4.266-4.014
			c0.188,0,0.376,0,0.566,0c2.34,0,3.384,1.761,4.621,3.839L65.514,32.941z M80.938,32.206h-8.943l3.288-1.898l-4.11-7.007
			l-0.004,0.003c-0.791-1.331-1.521-2.535-2.654-3.229c3.451,0.004,7.821,0.058,8.035,0.05c1.4-0.047,2.711,1.105,3.387,2.267
			c0.42,0.722,2.225,3.938,2.225,3.938l3.191-1.8L80.938,32.206z"/>
		<path d="M68.922,46.642L68.87,54.68c-1.067-0.006-4.644-0.03-5.54-0.016c-4.111,0.074-5.169-0.928-5.607-1.686
			c-0.092-0.161-0.188-0.327-0.283-0.49c-1.17-2.027-0.168-3.814,1.017-5.922L68.922,46.642z M60.572,33.65l4.472,7.747l-3.287-1.9
			l-4.011,7.064h0.004c-0.758,1.351-1.434,2.587-1.471,3.912c-1.723-2.988-3.859-6.797-3.975-6.981
			c-0.74-1.19-0.396-2.899,0.27-4.067c0.416-0.727,2.299-3.893,2.299-3.893l-3.156-1.864L60.572,33.65z"/>
		<path d="M79.087,36.893l6.986-3.974c0.528,0.927,2.295,4.037,2.756,4.805c2.119,3.524,1.782,4.94,1.347,5.698
			c-0.095,0.162-0.189,0.327-0.287,0.492c-1.17,2.024-3.218,2.052-5.635,2.08L79.087,36.893z M72.01,50.618l4.471-7.745v3.795
			l8.125-0.056l-0.004-0.004c1.549-0.018,2.957-0.052,4.123-0.684c-1.728,2.985-3.957,6.743-4.06,6.934
			c-0.66,1.235-2.31,1.793-3.656,1.8c-0.837,0.003-4.521-0.046-4.521-0.046l-0.035,3.666L72.01,50.618z"/>
	</g>
	<g>
		<path d="M39.678,45.327h-9.965v-0.454c0-0.602-0.488-1.089-1.089-1.089h-7.298c-0.602,0-1.089,0.487-1.089,1.089v0.454h-9.966
			c-0.648,0-1.174,1.024-1.174,3.835h31.756C40.853,46.351,40.327,45.327,39.678,45.327z"/>
		<path d="M26.799,45.385c0,0.602-0.487,1.089-1.088,1.089h-1.472c-0.602,0-1.089-0.487-1.089-1.089V43.04
			c0-0.601,0.487-1.089,1.089-1.089h1.472c0.602,0,1.088,0.488,1.088,1.089V45.385z"/>
		<path d="M9,49.799v4.263h2.958l1.487,23.761c0,0.609,0.493,1.104,1.102,1.104h3.054l-1.413-24.503
			c-0.024-0.425,0.3-0.787,0.723-0.813c0.42-0.021,0.787,0.3,0.811,0.726l1.418,24.589h5.066V54.379
			c0-0.425,0.344-0.769,0.769-0.769c0.424,0,0.768,0.346,0.768,0.769v24.546h5.066l1.418-24.589
			c0.024-0.426,0.388-0.748,0.812-0.726c0.424,0.024,0.748,0.389,0.723,0.813L32.35,78.925h3.054c0.608,0,1.102-0.492,1.102-1.103
			l1.487-23.762h2.959v-4.263L9,49.799L9,49.799z"/>
	</g>
</g>
</svg>
