<?xml version="1.0" encoding="utf-8"?>
<!-- Generator: Adobe Illustrator 13.0.0, SVG Export Plug-In . SVG Version: 6.00 Build 14948)  -->
<!DOCTYPE svg PUBLIC "-//W3C//DTD SVG 1.1//EN" "http://www.w3.org/Graphics/SVG/1.1/DTD/svg11.dtd">
<svg version="1.1" id="レイヤー_1" xmlns="http://www.w3.org/2000/svg" xmlns:xlink="http://www.w3.org/1999/xlink" x="0px"
	 y="0px" width="100px" height="100px" viewBox="-60.754 -0.5 100 100" enable-background="new -60.754 -0.5 100 100"
	 xml:space="preserve">
<circle fill="#B2B2B2" cx="49.5" cy="49.5" r="50"/>
<path d="M62.37,20.782v-3.093h-0.059l-10.804-5.486h-1.54v1.814h-0.936v-1.814h-1.597l-10.804,5.486v3.093h-3.288v66.016h3.288
	H62.37h3.286V20.782H62.37z M38.556,21.333h2.654v1.359h-2.654V21.333z M38.556,23.032h2.654v1.358h-2.654V23.032z M38.556,24.729
	h2.654v1.358h-2.654V24.729z M38.556,26.428h2.654v1.359h-2.654V26.428z M36.646,85.697h-2.438V84.34h2.438L36.646,85.697
	L36.646,85.697z M36.646,84.002h-2.438v-1.36h2.438L36.646,84.002L36.646,84.002z M36.646,82.301h-2.438v-1.356h2.438L36.646,82.301
	L36.646,82.301z M36.646,80.604h-2.438v-1.358h2.438L36.646,80.604L36.646,80.604z M36.646,78.907h-2.438v-1.36h2.438L36.646,78.907
	L36.646,78.907z M36.646,77.208h-2.438V75.85h2.438L36.646,77.208L36.646,77.208z M36.646,75.509h-2.438v-1.357h2.438L36.646,75.509
	L36.646,75.509z M36.646,73.811h-2.438v-1.358h2.438L36.646,73.811L36.646,73.811z M36.646,72.113h-2.438v-1.359h2.438
	L36.646,72.113L36.646,72.113z M36.646,70.415h-2.438v-1.358h2.438L36.646,70.415L36.646,70.415z M36.646,68.718h-2.438v-1.358
	h2.438L36.646,68.718L36.646,68.718z M36.646,67.017v0.002h-2.438v-0.002v-1.355h2.438L36.646,67.017L36.646,67.017z M36.646,65.32
	h-2.438v-1.357h2.438L36.646,65.32L36.646,65.32z M36.646,62.267v1.358h-2.438v-1.358v-0.002L36.646,62.267L36.646,62.267
	L36.646,62.267z M36.646,61.924L36.646,61.924h-2.438l0,0v-1.356h2.438L36.646,61.924L36.646,61.924z M36.646,60.228L36.646,60.228
	h-2.438l0,0v-1.36h2.438L36.646,60.228L36.646,60.228z M36.646,58.528h-2.438v-1.356h2.438L36.646,58.528L36.646,58.528z
	 M36.646,55.474v1.357h-2.438v-1.357v-0.002h2.438L36.646,55.474L36.646,55.474z M36.646,53.774v1.357h-2.438v-1.357l0,0H36.646
	L36.646,53.774z M36.646,52.076v1.359l0,0h-2.438l0,0v-1.359l0,0H36.646L36.646,52.076z M36.646,51.738h-2.438v-1.36h2.438
	L36.646,51.738L36.646,51.738z M36.646,48.68v1.36l0,0h-2.438l0,0v-1.36l0,0H36.646L36.646,48.68z M36.646,46.983v1.358h-2.438
	v-1.358v0L36.646,46.983L36.646,46.983z M36.646,45.284v1.358v0h-2.438v0v-1.358l0,0H36.646L36.646,45.284z M36.646,44.944
	L36.646,44.944h-2.438l0,0v-1.359h2.438L36.646,44.944L36.646,44.944z M36.646,41.889v1.357v0.001h-2.438v-0.001v-1.357l0,0H36.646
	L36.646,41.889z M36.646,40.191v1.357h-2.438v-1.357V40.19L36.646,40.191L36.646,40.191z M36.646,39.851h-2.438v-1.359h2.438
	L36.646,39.851L36.646,39.851z M36.646,38.153h-2.438v-1.358h2.438L36.646,38.153L36.646,38.153z M36.646,36.455h-2.438v-1.359
	h2.438L36.646,36.455L36.646,36.455z M36.646,34.756h-2.438v-1.36h2.438L36.646,34.756L36.646,34.756z M36.646,33.059h-2.438V31.7
	h2.438L36.646,33.059L36.646,33.059z M36.646,31.36h-2.438v-1.358h2.438L36.646,31.36L36.646,31.36z M36.646,29.662h-2.438v-1.359
	h2.438L36.646,29.662L36.646,29.662z M36.646,27.964h-2.438v-1.359h2.438L36.646,27.964L36.646,27.964z M36.646,26.266h-2.438
	v-1.358h2.438L36.646,26.266L36.646,26.266z M36.646,24.568h-2.438v-1.359h2.438L36.646,24.568L36.646,24.568z M36.646,22.871
	h-2.438v-1.359h2.438L36.646,22.871L36.646,22.871z M43.958,85.475h-5.401V84.16h5.401V85.475z M43.958,83.821h-5.401v-1.358h5.401
	V83.821z M43.958,82.123h-5.401v-1.358h5.401V82.123z M43.958,80.425h-5.401v-1.357h5.401V80.425z M43.958,78.728h-5.401v-1.359
	h5.401V78.728z M43.958,77.03h-5.401v-1.359h5.401V77.03z M43.958,75.332h-5.401v-1.359h5.401V75.332z M43.958,73.633h-5.401v-1.357
	h5.401V73.633z M43.958,71.936h-5.401v-1.359h5.401V71.936z M43.958,70.236h-5.401V68.88h5.401V70.236z M43.958,68.54h-5.401v-1.36
	h5.401V68.54z M43.958,66.84h-5.401v-1.356h5.401V66.84z M43.958,65.143h-5.401v-1.357h5.401V65.143z M43.958,63.444h-5.401v-1.357
	h5.401V63.444z M43.958,61.746h-5.401V60.39h5.401V61.746z M43.958,60.05h-5.401V58.69h5.401V60.05z M43.958,58.351h-5.401v-1.357
	h5.401V58.351z M43.958,56.654h-5.401v-1.359h5.401V56.654z M43.958,54.955h-5.401v-1.359h5.401V54.955z M43.958,53.258h-5.401
	v-1.359h5.401V53.258z M43.958,51.559h-5.401V50.2h5.401V51.559z M43.958,49.861h-5.401v-1.358h5.401V49.861z M43.958,48.164h-5.401
	v-1.36h5.401V48.164z M43.958,46.464h-5.401v-1.358h5.401V46.464z M43.958,44.768h-5.401v-1.359h5.401V44.768z M43.958,43.068
	h-5.401v-1.359h5.401V43.068z M43.958,41.37h-5.401v-1.318h2.654h0.092h2.654L43.958,41.37L43.958,41.37z M43.958,39.673h-2.364
	h-0.29h-0.092H41.01h-2.453v-1.359h2.451h0.202h0.092h0.29h2.364L43.958,39.673L43.958,39.673z M43.958,37.975h-2.364h-0.29h-0.092
	H41.01h-2.453v-1.358h2.451h0.202h0.092h0.29h2.364L43.958,37.975L43.958,37.975z M43.958,36.275h-2.364h-0.29h-0.092h-0.296h-2.359
	v-1.358h2.357h0.296h0.092h0.29h2.364L43.958,36.275L43.958,36.275z M43.958,34.579h-2.364h-0.29h-0.092h-0.296h-2.359v-1.36h2.357
	h0.296h0.092h0.29h2.364L43.958,34.579L43.958,34.579z M43.958,32.88h-2.247h-0.408h-0.092h-0.437h-2.219v-1.359h2.218h0.436h0.093
	h0.407h2.247L43.958,32.88L43.958,32.88z M43.958,31.181h-2.364h-0.29h-0.092h-0.378h-2.276v-1.359h2.276h0.378h0.092h0.29h2.364
	V31.181z M43.958,29.484H41.77h-0.465h-0.093h-0.482h-2.172v-1.359h2.172h0.482h0.093h0.465h2.188V29.484z M43.958,27.786h-2.654
	v-1.359h2.654V27.786z M43.958,26.088h-2.654v-1.359h2.654V26.088z M41.303,24.39v-1.358v-0.339v-1.359h2.654h0.095h2.654H46.8
	h2.654h0.094h2.654h0.095h2.656h0.093h2.656v1.359v0.339v1.358h-2.656h-0.093h-2.656h-0.095h-2.654h-0.094H46.8h-0.094h-2.654
	h-0.095H41.303z M55.042,26.088v-1.359h2.656v1.359H55.042z M57.698,26.428v1.359h-2.656v-1.359H57.698z M52.295,37.975v-1.358
	h2.656v1.358H52.295z M54.949,38.314v1.359h-2.656v-1.359H54.949z M52.295,36.275v-1.358h2.656v1.358H52.295z M52.295,34.579v-1.36
	h2.656v1.36H52.295z M52.295,32.88v-1.359h2.656v1.359H52.295z M52.295,31.181v-1.359h2.656v1.359H52.295z M52.295,29.484v-1.359
	h2.656v1.359H52.295z M52.295,27.786v-1.359h2.656v1.359H52.295z M52.295,26.088v-1.359h2.656v1.359H52.295z M49.455,37.974
	L49.455,37.974h-2.654l0,0v-1.357l0,0h5.401l0,0v1.358l0,0h-2.653l0,0L49.455,37.974L49.455,37.974z M49.547,36.275L49.547,36.275
	h-0.093l0,0H46.8l0,0v-1.358l0,0h5.402l0,0v1.358l0,0H49.547z M49.547,34.579L49.547,34.579l-0.094-0.001v0.001h-2.654v-0.001
	v-1.359l0,0H52.2l0,0v1.359v0.001H49.547z M49.547,32.88L49.547,32.88h-0.093l0,0H46.8l0,0v-1.359l0,0h5.402l0,0v1.359l0,0H49.547z
	 M49.547,31.181L49.547,31.181h-0.093l0,0H46.8l0,0v-1.359l0,0h5.402l0,0v1.359l0,0H49.547z M49.547,29.484L49.547,29.484h-0.093
	l0,0H46.8l0,0v-1.359l0,0h5.402l0,0v1.359l0,0H49.547z M49.547,27.786h-0.093H46.8v-1.359h2.654h0.094h2.654v1.359H49.547z
	 M49.547,26.088h-0.093H46.8v-1.359h2.654h0.094h2.654v1.359H49.547z M44.053,37.975v-1.358h2.654v1.358H44.053z M46.706,38.314
	v1.359h-2.654v-1.359H46.706z M44.053,36.275v-1.358h2.654v1.358H44.053z M44.053,34.579v-1.36h2.654v1.36H44.053z M44.053,32.88
	v-1.359h2.654v1.359H44.053z M44.053,31.181v-1.359h2.654v1.359H44.053z M44.053,29.484v-1.359h2.654v1.359H44.053z M44.053,27.786
	v-1.359h2.654v1.359H44.053z M44.053,26.088v-1.359h2.654v1.359H44.053z M49.455,85.475h-5.402V84.16h5.402V85.475z M49.455,83.821
	h-5.402v-1.358h5.402V83.821z M49.455,82.123h-5.402v-1.358h5.402V82.123z M49.455,80.425h-5.402v-1.357h5.402V80.425z
	 M49.455,78.728h-5.402v-1.359h5.402V78.728z M49.455,77.03h-5.402v-1.359h5.402V77.03z M49.455,75.332h-5.402v-1.359h5.402V75.332z
	 M49.455,73.633h-5.402v-1.357h5.402V73.633z M49.455,71.936h-5.402v-1.359h5.402V71.936z M49.455,70.236h-5.402V68.88h5.402V70.236
	z M49.455,68.54h-5.402v-1.36h5.402V68.54z M49.455,66.84h-5.402v-1.356h5.402V66.84z M49.455,65.143h-5.402v-1.357h5.402V65.143z
	 M49.455,63.444h-5.402v-1.357h5.402V63.444z M49.455,61.746h-5.402V60.39h5.402V61.746z M49.455,60.05h-5.402V58.69h5.402V60.05z
	 M49.455,58.351h-5.402v-1.357h5.402V58.351z M49.455,56.654h-5.402v-1.359h5.402V56.654z M49.455,54.955h-5.402v-1.359h5.402
	V54.955z M49.455,53.258h-5.402v-1.359h5.402V53.258z M49.455,51.559h-5.402V50.2h5.402V51.559z M49.455,49.861h-5.402v-1.358h5.402
	V49.861z M49.455,48.164h-5.402v-1.36h5.402V48.164z M49.455,46.464h-5.402v-1.358h5.402V46.464z M49.455,44.768h-5.402v-1.359
	h5.402V44.768z M49.455,43.068h-5.402v-1.359h5.402V43.068z M49.455,41.37h-5.402v-1.318h2.654h0.094h2.654V41.37z M49.455,39.673
	h-2.654l0,0v-1.358v-0.001h5.401v0.001v1.358l0,0h-2.653l0,0H49.455L49.455,39.673z M54.949,85.475h-5.402V84.16h5.402V85.475z
	 M54.949,83.821h-5.402v-1.358h5.402V83.821z M54.949,82.123h-5.402v-1.358h5.402V82.123z M54.949,80.425h-5.402v-1.357h5.402
	V80.425z M54.949,78.728h-5.402v-1.359h5.402V78.728z M54.949,77.03h-5.402v-1.359h5.402V77.03z M54.949,75.332h-5.402v-1.359h5.402
	V75.332z M54.949,73.633h-5.402v-1.357h5.402V73.633z M54.949,71.936h-5.402v-1.359h5.402V71.936z M54.949,70.236h-5.402V68.88
	h5.402V70.236z M54.949,68.54h-5.402v-1.36h5.402V68.54z M54.949,66.84h-5.402v-1.356h5.402V66.84z M54.949,65.143h-5.402v-1.357
	h5.402V65.143z M54.949,63.444h-5.402v-1.357h5.402V63.444z M54.949,61.746h-5.402V60.39h5.402V61.746z M54.949,60.05h-5.402V58.69
	h5.402V60.05z M54.949,58.351h-5.402v-1.357h5.402V58.351z M54.949,56.654h-5.402v-1.359h5.402V56.654z M54.949,54.955h-5.402
	v-1.359h5.402V54.955z M54.949,53.258h-5.402v-1.359h5.402V53.258z M54.949,51.559h-5.402V50.2h5.402V51.559z M54.949,49.861h-5.402
	v-1.358h5.402V49.861z M54.949,48.164h-5.402v-1.36h5.402V48.164z M54.949,46.464h-5.402v-1.358h5.402V46.464z M54.949,44.768
	h-5.402v-1.359h5.402V44.768z M54.949,43.068h-5.402v-1.359h5.402V43.068z M54.949,41.37h-5.402v-1.318H52.2h0.097h2.654l0,0
	L54.949,41.37L54.949,41.37z M60.445,85.475h-5.401V84.16h5.401V85.475z M60.445,83.821h-5.401v-1.358h5.401V83.821z M60.445,82.123
	h-5.401v-1.358h5.401V82.123z M60.445,80.425h-5.401v-1.357h5.401V80.425z M60.445,78.728h-5.401v-1.359h5.401V78.728z
	 M60.445,77.03h-5.401v-1.359h5.401V77.03z M60.445,75.332h-5.401v-1.359h5.401V75.332z M60.445,73.633h-5.401v-1.357h5.401V73.633z
	 M60.445,71.936h-5.401v-1.359h5.401V71.936z M60.445,70.236h-5.401V68.88h5.401V70.236z M60.445,68.54h-5.401v-1.36h5.401V68.54z
	 M60.445,66.84h-5.401v-1.356h5.401V66.84z M60.445,65.143h-5.401v-1.357h5.401V65.143z M60.445,63.444h-5.401v-1.357h5.401V63.444z
	 M60.445,61.746h-5.401V60.39h5.401V61.746z M60.445,60.05h-5.401V58.69h5.401V60.05z M60.445,58.351h-5.401v-1.357h5.401V58.351z
	 M60.445,56.654h-5.401v-1.359h5.401V56.654z M60.445,54.955h-5.401v-1.359h5.401V54.955z M60.445,53.258h-5.401v-1.359h5.401
	V53.258z M60.445,51.559h-5.401V50.2h5.401V51.559z M60.445,49.861h-5.401v-1.358h5.401V49.861z M60.445,48.164h-5.401v-1.36h5.401
	V48.164z M60.445,46.464h-5.401v-1.358h5.401V46.464z M60.445,44.768h-5.401v-1.359h5.401V44.768z M60.445,43.068h-5.401v-1.359
	h5.401V43.068z M60.445,41.37h-5.401v-1.318h2.655h0.093h2.654L60.445,41.37L60.445,41.37z M60.445,39.673h-2.348h-0.307h-0.093
	h-0.185h-2.47v-1.359h2.47h0.185h0.091h0.309h2.348V39.673L60.445,39.673z M60.445,37.975h-2.348h-0.307h-0.093h-0.185h-2.47v-1.358
	h2.47h0.185h0.091h0.309h2.348V37.975L60.445,37.975z M60.445,36.275h-2.348h-0.307h-0.093h-0.279h-2.377v-1.358h2.377h0.279h0.091
	h0.309h2.348V36.275L60.445,36.275z M60.445,34.579h-2.348h-0.307h-0.093h-0.279h-2.377v-1.36h2.377h0.279h0.091h0.309h2.348V34.579
	L60.445,34.579z M60.445,32.88h-2.231h-0.425h-0.091h-0.42h-2.236v-1.359h2.236h0.42h0.091h0.425h2.231V32.88z M60.445,31.181
	h-2.348h-0.307h-0.093h-0.361h-2.295v-1.359h2.295h0.361h0.093h0.308h2.348L60.445,31.181L60.445,31.181z M60.445,29.484h-2.171
	h-0.485h-0.091h-0.465h-2.191v-1.359h2.191h0.465h0.091h0.485h2.171V29.484z M60.445,27.786h-2.656v-1.359h2.656V27.786z
	 M60.445,26.088h-2.656v-1.359h2.656V26.088z M60.445,24.39h-2.656v-1.358h2.656V24.39z M60.445,22.692h-2.656v-1.359h2.656V22.692z
	 M64.805,85.655H62.37v-1.357h2.435V85.655z M64.805,83.957H62.37V82.6h2.435V83.957z M64.805,82.259H62.37v-1.359h2.435V82.259z
	 M64.805,80.562H62.37v-1.358h2.435V80.562z M64.805,78.863H62.37v-1.358h2.435V78.863z M64.805,77.166H62.37v-1.359h2.435V77.166z
	 M64.805,75.468H62.37v-1.359h2.435V75.468z M64.805,73.77H62.37V72.41h2.435V73.77z M64.805,72.069H62.37v-1.357h2.435V72.069z
	 M64.805,70.374H62.37v-1.36h2.435V70.374z M64.805,68.675H62.37v-1.357h2.435V68.675z M64.805,66.975L64.805,66.975H62.37l0,0
	v-1.357h2.435V66.975z M64.805,65.279H62.37v-1.358h2.435V65.279z M64.805,63.579L64.805,63.579H62.37l0,0v-1.356h2.435V63.579z
	 M64.805,60.524v1.357H62.37v-1.357l0,0H64.805L64.805,60.524z M64.805,60.186L64.805,60.186H62.37l0,0v-1.358h2.435V60.186z
	 M64.805,58.486L64.805,58.486H62.37l0,0v-1.358h2.435V58.486z M64.805,56.789L64.805,56.789H62.37l0,0V55.43h2.435V56.789z
	 M64.805,53.732v1.358l0,0H62.37l0,0v-1.358V53.73h2.435V53.732z M64.805,52.033v1.358l0,0H62.37l0,0v-1.358l0,0H64.805
	L64.805,52.033z M64.805,51.693L64.805,51.693H62.37l0,0v-1.357h2.435V51.693z M64.805,49.996L64.805,49.996l-2.435,0.001v-0.001
	v-1.358h2.435V49.996z M64.805,46.941v1.357H62.37v-1.357v-0.002h2.435V46.941z M64.805,45.241V46.6l0,0H62.37l0,0v-1.358l0,0
	H64.805L64.805,45.241z M64.805,43.544v1.359H62.37v-1.359l0,0H64.805L64.805,43.544z M64.805,43.204L64.805,43.204l-2.435,0.001
	v-0.001v-1.357h2.435V43.204z M64.805,40.147v1.359H62.37v-1.359l0,0H64.805L64.805,40.147z M64.805,39.808H62.37v-1.359h2.435
	V39.808z M64.805,38.108H62.37v-1.356h2.435V38.108z M64.805,36.411H62.37v-1.359h2.435V36.411z M64.805,34.713H62.37v-1.359h2.435
	V34.713z M64.805,33.016H62.37v-1.357h2.435V33.016z M64.805,31.317H62.37v-1.358h2.435V31.317z M64.805,29.621H62.37v-1.36h2.435
	V29.621z M64.805,27.921H62.37v-1.358h2.435V27.921z M64.805,26.224H62.37v-1.359h2.435V26.224z M64.805,24.525H62.37v-1.358h2.435
	V24.525z M64.805,22.827H62.37V21.47h2.435V22.827z"/>
</svg>
