<?xml version="1.0" encoding="utf-8"?>
<!-- Generator: Adobe Illustrator 13.0.0, SVG Export Plug-In . SVG Version: 6.00 Build 14948)  -->
<!DOCTYPE svg PUBLIC "-//W3C//DTD SVG 1.1//EN" "http://www.w3.org/Graphics/SVG/1.1/DTD/svg11.dtd">
<svg version="1.1" id="レイヤー_1" xmlns="http://www.w3.org/2000/svg" xmlns:xlink="http://www.w3.org/1999/xlink" x="0px"
	 y="0px" width="100px" height="100px" viewBox="-1 0 100 100" enable-background="new -1 0 100 100" xml:space="preserve">
<circle fill="#B2B2B2" cx="49.5" cy="50" r="50"/>
<g>
	<rect x="28.402" y="29.208" transform="matrix(0.7075 -0.7067 0.7067 0.7075 -13.3136 29.2936)" width="0.656" height="3.044"/>
	<g>
		<rect x="57.775" y="70.095" transform="matrix(0.7071 -0.7071 0.7071 0.7071 -29.8755 69.296)" width="21.871" height="1.232"/>
		<polygon points="35.473,30.328 29.275,31.298 28.307,37.494 64.681,73.868 71.869,66.68 35.494,30.306 		"/>
		<rect x="64.564" y="62.18" transform="matrix(0.7071 -0.7071 0.7071 0.7071 -29.7875 69.0788)" width="7.856" height="16.633"/>
	</g>
	<g>
		<line fill="none" x1="30.812" y1="32.811" x2="17.416" y2="19.416"/>
		<rect x="14.641" y="25.998" transform="matrix(0.7071 0.7071 -0.7071 0.7071 25.5275 -9.4023)" width="18.944" height="0.231"/>
	</g>
	<g>
		<rect x="65.957" y="76.194" transform="matrix(0.7071 -0.7071 0.7071 0.7071 -32.4014 75.3942)" width="17.703" height="1.231"/>
		<path d="M68.985,83.667l-1.033-1.035l12.681-12.681l1.033,1.033L68.985,83.667z M68.278,82.632l0.707,0.708L81.34,70.986
			l-0.71-0.707L68.278,82.632z"/>
	</g>
</g>
</svg>
