<?xml version="1.0" encoding="utf-8"?>
<!-- Generator: Adobe Illustrator 13.0.0, SVG Export Plug-In . SVG Version: 6.00 Build 14948)  -->
<!DOCTYPE svg PUBLIC "-//W3C//DTD SVG 1.1//EN" "http://www.w3.org/Graphics/SVG/1.1/DTD/svg11.dtd">
<svg version="1.1" id="レイヤー_1" xmlns="http://www.w3.org/2000/svg" xmlns:xlink="http://www.w3.org/1999/xlink" x="0px"
	 y="0px" width="100px" height="100px" viewBox="-2.482 0 100 100" enable-background="new -2.482 0 100 100" xml:space="preserve">
<circle fill="#B2B2B2" cx="48.759" cy="50" r="50"/>
<g>
	<path d="M75.623,21.5H21.157c-1.469,0-2.657,1.07-2.657,2.39v29.875c0,1.318,1.188,2.391,2.657,2.391h54.466
		c1.468,0,2.656-1.07,2.656-2.391V23.89C78.281,22.57,77.09,21.5,75.623,21.5z M76.404,52.189c0,1.181-1.112,2.137-2.488,2.137
		h-51.05c-1.377,0-2.492-0.956-2.492-2.137V25.465c0-1.181,1.114-2.138,2.492-2.138h51.049c1.376,0,2.489,0.958,2.489,2.138V52.189
		L76.404,52.189z"/>
	<rect x="45.812" y="54.326" width="5.156" height="10.092"/>
	<path d="M34.29,65.609v-2.387c0-1.32,1.188-2.392,2.656-2.392h22.888c1.467,0,2.656,1.069,2.656,2.392v2.387H34.29z"/>
	<path d="M75.779,75.104l-3.692-5.881c-0.534-0.85-2.159-1.539-3.623-1.539H28.32l0,0l0,0c-1.1,0-2.285,0.39-3.039,0.94
		c-0.25,0.185-0.45,0.387-0.584,0.599l-3.695,5.881c-0.534,0.853,0.222,1.539,1.689,1.539h51.398
		C75.557,76.643,76.313,75.954,75.779,75.104z"/>
</g>
</svg>
