<?xml version="1.0" encoding="utf-8"?>
<!-- Generator: Adobe Illustrator 13.0.0, SVG Export Plug-In . SVG Version: 6.00 Build 14948)  -->
<!DOCTYPE svg PUBLIC "-//W3C//DTD SVG 1.1//EN" "http://www.w3.org/Graphics/SVG/1.1/DTD/svg11.dtd">
<svg version="1.1" id="Ebene_1" xmlns="http://www.w3.org/2000/svg" xmlns:xlink="http://www.w3.org/1999/xlink" x="0px" y="0px"
	 width="100px" height="100px" viewBox="0 -0.5 100 100" enable-background="new 0 -0.5 100 100" xml:space="preserve">
<circle fill="#B2B2B2" cx="50" cy="49.5" r="50"/>
<path d="M59.206,89.06l0.012-0.004l-0.028-0.104c-0.004-0.063-0.013-0.125-0.029-0.188c-0.986-6.117-1.82-11.449-2.516-16.146
	c0.024-0.076,0.041-0.151,0.041-0.229c0-0.146-0.052-0.283-0.138-0.414c-0.03-0.205-0.06-0.408-0.09-0.612v-0.115h-0.019
	c-0.379-2.588-0.715-4.976-1.006-7.188c-0.004-0.012-0.006-0.024-0.006-0.035c-0.131-0.971-0.25-1.905-0.365-2.813l0.004-0.006
	l0.004-0.119l-0.02-0.002c-0.129-1.022-0.246-2.004-0.354-2.95c0.008-0.033,0.012-0.063,0.012-0.097
	c0-0.065-0.016-0.131-0.043-0.194c-0.229-2.025-0.412-3.89-0.557-5.617c0-0.008,0.004-0.015,0.004-0.021
	c0-0.019-0.006-0.037-0.01-0.06c-0.019-0.226-0.037-0.446-0.056-0.67l0.002-0.017l0.015-0.114l-0.025-0.006
	c-0.246-3.221-0.344-5.979-0.314-8.499l0.019-0.106l-0.019-0.002c0.041-3.226,0.291-6.073,0.701-9.035
	c0.02-0.055,0.033-0.109,0.033-0.166c0-0.013-0.004-0.023-0.006-0.035c0.299-2.131,0.68-4.327,1.127-6.771
	c0.066-0.105,0.107-0.218,0.107-0.335c0-0.047-0.008-0.094-0.019-0.14c0.138-0.749,0.279-1.521,0.429-2.322
	c0.032-0.175,0.063-0.354,0.098-0.534c0.527-2.521,0.84-4.041,0.859-4.141l0.024-0.116l-0.047-0.009
	c-0.072-0.507-0.699-0.929-1.646-1.252c0.006-0.029,0.008-0.047,0.008-0.047l0.022-0.116l-0.231-0.047l-0.021,0.117
	c0,0.004-0.004,0.012-0.004,0.02c-0.609-0.188-1.332-0.338-2.113-0.448l0.018-0.097l-0.229-0.047l-0.024,0.111
	c-0.761-0.097-1.57-0.152-2.386-0.169V7.418h-0.847v9.731c-0.81,0.013-1.625,0.063-2.392,0.156l-0.021-0.096l-0.232,0.047
	l0.017,0.081c-0.78,0.104-1.504,0.251-2.113,0.44l-0.023-0.113l-0.233,0.045l0.022,0.116c0,0,0.002,0.009,0.005,0.022
	c-0.943,0.321-1.57,0.747-1.643,1.276l-0.047,0.01l0.023,0.116c0.021,0.1,0.337,1.619,0.861,4.14
	c0.032,0.18,0.066,0.359,0.098,0.534c0.149,0.802,0.293,1.575,0.431,2.324c-0.011,0.045-0.018,0.091-0.018,0.138
	c0,0.123,0.038,0.238,0.106,0.349c0.445,2.441,0.825,4.636,1.126,6.764c0,0.012-0.006,0.02-0.006,0.03
	c0,0.059,0.014,0.113,0.033,0.169c0.41,2.962,0.659,5.809,0.7,9.032l-0.016,0.002l0.018,0.104c0.028,2.523-0.068,5.278-0.315,8.501
	l-0.025,0.004l0.015,0.131c-0.018,0.23-0.035,0.457-0.055,0.689c0,0.014-0.006,0.026-0.006,0.039c0,0.006,0.001,0.01,0.002,0.016
	c-0.143,1.73-0.328,3.594-0.555,5.621c-0.027,0.066-0.043,0.131-0.043,0.199c0,0.03,0.004,0.061,0.01,0.09
	c-0.108,0.951-0.226,1.932-0.353,2.957l-0.022,0.002l0.006,0.123c-0.374,2.981-0.828,6.301-1.375,10.035H43.54v0.117
	c-0.028,0.198-0.059,0.396-0.088,0.598c-0.088,0.135-0.138,0.277-0.138,0.428c0,0.08,0.015,0.16,0.039,0.234
	c-0.695,4.69-1.529,10.022-2.516,16.141c-0.015,0.057-0.024,0.109-0.027,0.166c-0.001,0.008-0.003,0.018-0.004,0.025l-0.001,0.012
	l-0.024,0.09l0.009,0.004l-0.001,0.012h0.001l-0.001,0.008l0.028,0.006c0.201,1.41,4.121,2.498,9.094,2.498
	c4.983,0,9.058-1.112,9.271-2.498l0.025-0.006l-0.002-0.012h0.002L59.206,89.06z M43.541,80.31c-0.313,0.119-0.581,0.25-0.807,0.388
	c0.178-0.882,0.368-1.82,0.567-2.81c0.078-0.385,0.158-0.783,0.239-1.185L43.541,80.31L43.541,80.31z M43.541,75.505
	c-0.086,0.418-0.168,0.825-0.248,1.229c0.082-0.51,0.164-1.029,0.248-1.563V75.505z M43.541,73.644
	c-0.421,2.687-0.816,5.156-1.183,7.33c-0.019,0.019-0.033,0.031-0.048,0.045c0.45-2.869,0.858-5.541,1.229-8.032L43.541,73.644
	L43.541,73.644z M54.999,62.576c0.045,0.332,0.086,0.662,0.131,1.002c-0.053-0.045-0.11-0.088-0.174-0.131L54.999,62.576z
	 M55.122,64.125c0,0.074-0.035,0.146-0.097,0.222c-0.024-0.174-0.051-0.347-0.08-0.521C55.057,63.927,55.122,64.024,55.122,64.125z
	 M55.872,71.429c-0.082-0.045-0.17-0.09-0.265-0.133c-0.27-1.332-0.547-2.707-0.83-4.121l0.105-2.195
	C55.225,67.209,55.555,69.369,55.872,71.429z M51.479,72.164l-0.225-1.325c0.124,0.006,0.248,0.018,0.369,0.024L51.479,72.164z
	 M51.536,73.921c-0.007,0-0.011,0-0.017,0.002l0.008-0.06L51.536,73.921z M48.37,70.853c0.123-0.008,0.248-0.016,0.374-0.021
	l-0.226,1.334L48.37,70.853z M48.479,73.931c-0.006,0-0.013-0.004-0.019-0.004l0.012-0.063L48.479,73.931z M44.568,71.615
	c0.239-0.105,0.526-0.205,0.853-0.298l0.105,2.166c-0.515-0.135-0.936-0.293-1.242-0.463C44.378,72.56,44.473,72.091,44.568,71.615z
	 M44.068,72.892c-0.057-0.041-0.106-0.08-0.151-0.121c0.046-0.291,0.09-0.582,0.137-0.875c0.07-0.053,0.153-0.104,0.245-0.149
	C44.222,72.128,44.145,72.513,44.068,72.892z M46.81,46.001l0.135,0.801c-0.27-0.118-0.436-0.25-0.473-0.378
	c0.002-0.044,0.004-0.086,0.005-0.128C46.515,46.194,46.631,46.095,46.81,46.001z M46.487,45.955
	c0.015-0.578,0.025-1.142,0.029-1.692l0.256,1.515C46.66,45.832,46.565,45.892,46.487,45.955z M46.513,42.825
	c-0.007-0.639-0.023-1.262-0.046-1.872c0.231,0.183,0.611,0.333,1.077,0.444c0.184,0.889,0.371,1.789,0.561,2.699
	c-0.072,0.446-0.143,0.896-0.215,1.341c-0.336,0.064-0.64,0.146-0.894,0.241L46.513,42.825z M49.958,34.849
	c0.062,0,0.122-0.002,0.185-0.003c0.241,1.435,0.48,2.878,0.716,4.327c-0.018,0.09-0.035,0.18-0.053,0.27
	c-0.277-0.018-0.561-0.028-0.843-0.028c-0.258,0-0.516,0.009-0.771,0.023c-0.019-0.088-0.035-0.176-0.054-0.264
	c0.238-1.45,0.476-2.895,0.718-4.328C49.89,34.848,49.923,34.849,49.958,34.849z M53.521,46.29c0.002,0.046,0.004,0.092,0.004,0.137
	c-0.039,0.124-0.203,0.25-0.471,0.365l0.133-0.782C53.361,46.099,53.479,46.194,53.521,46.29z M53.225,45.789l0.26-1.526
	c0.004,0.553,0.014,1.121,0.029,1.702C53.434,45.904,53.337,45.844,53.225,45.789z M53.484,42.826l-0.485,2.866
	c-0.252-0.096-0.556-0.178-0.89-0.242c-0.071-0.451-0.143-0.903-0.217-1.355c0.191-0.915,0.377-1.819,0.563-2.71
	c0.467-0.114,0.844-0.263,1.073-0.443C53.509,41.558,53.491,42.184,53.484,42.826z M54.729,68.146
	c0.209,1.035,0.414,2.052,0.613,3.041c-0.227-0.084-0.477-0.166-0.75-0.239L54.729,68.146z M54.585,66.226
	c-0.073-0.373-0.149-0.752-0.229-1.129c0.103-0.041,0.199-0.082,0.289-0.123L54.585,66.226z M54.663,64.619
	c-0.104,0.058-0.229,0.113-0.369,0.168c-0.094-0.473-0.19-0.948-0.287-1.43c0.271,0.088,0.494,0.184,0.673,0.281
	c0.008,0.053,0.016,0.104,0.022,0.156L54.663,64.619z M49.999,63.416L49.9,62.832c0.017,0,0.033,0,0.048,0
	c0.051,0,0.1,0.005,0.149,0.005L49.999,63.416z M50.097,65.412c-0.05,0-0.099,0.004-0.149,0.004c-0.015,0-0.031,0-0.047,0
	l0.098-0.579L50.097,65.412z M49.948,62.517c-0.033,0-0.067,0.002-0.101,0.002l-0.526-3.101c0.213,0.009,0.423,0.015,0.634,0.015
	c0.24,0,0.481-0.01,0.721-0.019l-0.524,3.104C50.084,62.519,50.017,62.517,49.948,62.517z M50.12,45.26
	c-0.053-0.002-0.104-0.003-0.156-0.003c-0.029,0-0.058,0.001-0.088,0.001c0.04-0.201,0.082-0.401,0.122-0.603
	C50.04,44.855,50.08,45.058,50.12,45.26z M49.636,41.648c0.11,0.001,0.22,0.005,0.328,0.005c0.134,0,0.266-0.004,0.398-0.008
	c-0.12,0.599-0.24,1.199-0.363,1.808C49.876,42.845,49.757,42.244,49.636,41.648z M49.964,45.477c0.068,0,0.134,0.001,0.202,0.002
	c0.117,0.587,0.236,1.177,0.355,1.771c-0.181,0.009-0.366,0.015-0.559,0.015c-0.168,0-0.329-0.006-0.487-0.011
	c0.119-0.595,0.238-1.186,0.356-1.774C49.876,45.478,49.919,45.477,49.964,45.477z M49.961,51.226c0.07,0,0.139,0.002,0.21,0.004
	c-0.058,0.273-0.114,0.55-0.172,0.826c-0.057-0.276-0.114-0.553-0.171-0.828C49.872,51.228,49.916,51.226,49.961,51.226z
	 M49.778,50.99c-0.179-0.859-0.355-1.72-0.535-2.578c0.064-0.316,0.127-0.629,0.191-0.944c0.177,0.008,0.354,0.014,0.53,0.014
	c0.201,0,0.401-0.006,0.603-0.017c0.063,0.315,0.127,0.631,0.188,0.947c-0.178,0.858-0.356,1.721-0.535,2.578
	c-0.087,0-0.173-0.004-0.259-0.004C49.9,50.988,49.84,50.99,49.778,50.99z M49.961,53.421c0.026,0,0.053-0.003,0.08-0.003
	c0.225,1.082,0.449,2.164,0.674,3.244c-0.252-0.012-0.506-0.018-0.759-0.018c-0.224,0-0.447,0.006-0.67,0.014
	c0.224-1.076,0.447-2.158,0.672-3.237C49.959,53.421,49.96,53.421,49.961,53.421z M49.955,56.918c0.281,0,0.552,0.009,0.816,0.021
	c0.059,0.287,0.117,0.572,0.178,0.859l-0.227,1.338c-0.25,0.012-0.505,0.02-0.77,0.02c-0.234,0-0.46-0.008-0.68-0.018l-0.228-1.34
	c0.06-0.289,0.119-0.574,0.18-0.865C49.463,56.927,49.704,56.918,49.955,56.918z M50.919,59.404
	c0.121-0.011,0.239-0.019,0.356-0.027c0.228,1.094,0.453,2.178,0.677,3.252c-0.505-0.059-1.031-0.092-1.562-0.105L50.919,59.404z
	 M50.967,59.123l0.115-0.686c0.047,0.223,0.093,0.445,0.141,0.668C51.139,59.113,51.052,59.119,50.967,59.123z M51.018,56.955
	c0.025,0.002,0.051,0.002,0.075,0.004l-0.032,0.195C51.045,57.091,51.031,57.024,51.018,56.955z M50.959,56.679
	c-0.225-1.084-0.45-2.172-0.677-3.263c0.489-0.014,0.974-0.051,1.428-0.11l-0.571,3.385C51.079,56.685,51.02,56.681,50.959,56.679z
	 M50.233,53.177c-0.039-0.181-0.076-0.361-0.114-0.539c0.099-0.472,0.196-0.938,0.293-1.404c0.324,0.011,0.633,0.031,0.925,0.063
	c0.118,0.588,0.236,1.18,0.354,1.773C51.251,53.128,50.759,53.166,50.233,53.177z M50.462,50.996c0.14-0.666,0.276-1.33,0.413-1.993
	c0.137,0.682,0.273,1.364,0.412,2.049C51.018,51.027,50.738,51.005,50.462,50.996z M50.879,47.82
	c-0.023-0.123-0.05-0.245-0.072-0.368c0.049-0.003,0.103-0.007,0.151-0.012C50.93,47.567,50.904,47.694,50.879,47.82z
	 M50.762,47.236c-0.117-0.587-0.234-1.171-0.354-1.751c0.333,0.012,0.646,0.033,0.939,0.066c-0.113,0.554-0.229,1.111-0.345,1.668
	C50.924,47.226,50.843,47.23,50.762,47.236z M49.236,47.241c-0.082-0.005-0.16-0.012-0.241-0.019
	c-0.116-0.56-0.232-1.12-0.348-1.678c0.291-0.033,0.606-0.055,0.942-0.065C49.474,46.064,49.354,46.65,49.236,47.241z
	 M49.192,47.456c-0.024,0.12-0.049,0.241-0.073,0.364c-0.025-0.125-0.052-0.25-0.077-0.374
	C49.094,47.449,49.143,47.453,49.192,47.456z M49.124,49.003c0.137,0.661,0.273,1.323,0.413,1.989
	c-0.278,0.011-0.555,0.025-0.824,0.051C48.85,50.363,48.987,49.683,49.124,49.003z M49.585,51.233
	c0.099,0.468,0.195,0.935,0.293,1.404c-0.037,0.18-0.074,0.36-0.112,0.541c-0.532-0.008-1.023-0.043-1.463-0.101
	c0.122-0.598,0.241-1.194,0.361-1.789C48.953,51.259,49.261,51.24,49.585,51.233z M49.716,53.416
	c-0.228,1.091-0.452,2.177-0.677,3.255c-0.061,0.004-0.12,0.008-0.181,0.012l-0.57-3.367C48.745,53.373,49.231,53.41,49.716,53.416z
	 M48.982,56.949c-0.015,0.069-0.029,0.141-0.042,0.209l-0.036-0.201C48.931,56.951,48.956,56.951,48.982,56.949z M48.915,58.438
	l0.118,0.691c-0.088-0.005-0.172-0.013-0.258-0.019C48.823,58.888,48.869,58.662,48.915,58.438z M49.079,59.408l0.526,3.112
	c-0.526,0.011-1.054,0.043-1.558,0.097c0.222-1.068,0.446-2.146,0.671-3.234C48.839,59.392,48.958,59.399,49.079,59.408z
	 M47.8,62.644c-0.118,0.017-0.234,0.031-0.349,0.052l-0.389-3.455c0.006-0.029,0.013-0.063,0.019-0.093
	c0.425,0.097,0.902,0.166,1.399,0.216C48.252,60.47,48.024,61.563,47.8,62.644z M47.732,62.972c-0.054,0.26-0.109,0.521-0.163,0.778
	l-0.084-0.745C47.565,62.994,47.649,62.981,47.732,62.972z M47.981,62.94c0.512-0.057,1.076-0.092,1.679-0.104l0.219,1.291
	l-0.218,1.282c-0.699-0.01-1.342-0.057-1.918-0.131l-0.087-0.77C47.763,63.99,47.872,63.468,47.981,62.94z M50.338,62.837
	c0.6,0.014,1.165,0.053,1.684,0.114c0.106,0.521,0.217,1.039,0.321,1.56l-0.086,0.756c-0.58,0.082-1.226,0.131-1.919,0.146
	l-0.219-1.283L50.338,62.837z M52.27,62.986c0.082,0.01,0.162,0.02,0.242,0.03L52.43,63.75C52.374,63.496,52.32,63.242,52.27,62.986
	z M52.2,62.66c-0.226-1.088-0.455-2.191-0.687-3.308c0.5-0.051,0.975-0.123,1.4-0.219c0.006,0.034,0.016,0.069,0.021,0.104
	l-0.394,3.467C52.432,62.688,52.316,62.673,52.2,62.66z M53.089,60c0.199,0.986,0.396,1.968,0.593,2.937
	c-0.277-0.071-0.58-0.137-0.9-0.19L53.089,60z M53.023,58.47c-0.088-0.429-0.176-0.854-0.26-1.281
	c0.137,0.029,0.271,0.062,0.391,0.093L53.023,58.47z M52.859,58.869c-0.405,0.092-0.879,0.164-1.401,0.217
	c-0.088-0.43-0.179-0.859-0.267-1.291l0.139-0.818c0.429,0.041,0.824,0.094,1.184,0.16C52.628,57.716,52.745,58.291,52.859,58.869z
	 M51.374,56.709l0.479-2.836c0.199,0.994,0.4,1.986,0.601,2.978C52.113,56.789,51.751,56.744,51.374,56.709z M51.834,52.574
	c-0.085-0.418-0.167-0.836-0.251-1.252c0.157,0.021,0.308,0.043,0.451,0.065L51.834,52.574z M51.534,51.076
	c-0.181-0.891-0.358-1.778-0.536-2.663c0.068-0.333,0.139-0.664,0.207-0.996c0.334-0.033,0.656-0.081,0.952-0.142
	c0.094,0.589,0.186,1.174,0.274,1.758l-0.358,2.121C51.898,51.125,51.721,51.099,51.534,51.076z M51.251,47.195
	c0.11-0.54,0.224-1.078,0.334-1.611c0.106,0.014,0.213,0.03,0.313,0.048c0.076,0.479,0.151,0.956,0.227,1.433
	C51.861,47.117,51.568,47.162,51.251,47.195z M51.63,45.37c0.042-0.208,0.086-0.414,0.129-0.619
	c0.034,0.218,0.068,0.437,0.103,0.654C51.786,45.393,51.708,45.38,51.63,45.37z M51.79,43.435c-0.101-0.625-0.201-1.25-0.302-1.876
	c0.248-0.03,0.49-0.068,0.716-0.117C52.064,42.104,51.928,42.769,51.79,43.435z M51.652,44.089c-0.086,0.416-0.172,0.832-0.26,1.25
	c-0.332-0.04-0.679-0.064-1.03-0.076c-0.081-0.405-0.163-0.809-0.244-1.21c0.164-0.813,0.326-1.619,0.486-2.417
	c0.219-0.012,0.435-0.028,0.646-0.05C51.387,42.421,51.521,43.255,51.652,44.089z M50.406,41.424
	c-0.144,0.005-0.29,0.009-0.442,0.009c-0.126,0-0.25-0.002-0.372-0.006c-0.12-0.596-0.238-1.186-0.356-1.771
	c0.232-0.015,0.476-0.021,0.729-0.021c0.277,0,0.543,0.008,0.799,0.025C50.645,40.244,50.525,40.831,50.406,41.424z M49.878,44.053
	c-0.081,0.401-0.161,0.805-0.243,1.209c-0.349,0.01-0.697,0.032-1.031,0.07c-0.087-0.414-0.174-0.827-0.259-1.242
	c0.133-0.831,0.267-1.664,0.4-2.497c0.212,0.021,0.429,0.036,0.646,0.046C49.552,42.435,49.714,43.242,49.878,44.053z
	 M48.208,43.436c-0.137-0.662-0.273-1.323-0.41-1.98c0.224,0.044,0.464,0.082,0.711,0.112
	C48.409,42.189,48.309,42.813,48.208,43.436z M48.239,44.75c0.042,0.203,0.085,0.407,0.127,0.612
	c-0.078,0.01-0.153,0.021-0.229,0.034C48.172,45.18,48.205,44.966,48.239,44.75z M48.41,45.574c0.112,0.54,0.226,1.083,0.339,1.63
	c-0.32-0.033-0.614-0.077-0.877-0.129c0.075-0.482,0.152-0.97,0.229-1.455C48.202,45.603,48.303,45.589,48.41,45.574z
	 M48.796,47.424c0.068,0.331,0.137,0.658,0.206,0.99c-0.178,0.881-0.356,1.77-0.536,2.656c-0.187,0.02-0.368,0.047-0.544,0.073
	l-0.356-2.106c0.09-0.582,0.182-1.165,0.273-1.748C48.137,47.347,48.459,47.393,48.796,47.424z M48.416,51.313
	c-0.085,0.418-0.168,0.839-0.253,1.261l-0.202-1.195C48.106,51.354,48.256,51.33,48.416,51.313z M48.621,56.701
	c-0.372,0.031-0.735,0.076-1.075,0.138c0.199-0.986,0.397-1.976,0.597-2.966L48.621,56.701z M48.667,56.972l0.141,0.821
	c-0.09,0.437-0.181,0.867-0.27,1.3c-0.526-0.05-0.999-0.121-1.403-0.213c0.118-0.582,0.235-1.168,0.354-1.757
	C47.843,57.058,48.238,57.007,48.667,56.972z M46.975,58.47l-0.135-1.203c0.124-0.033,0.257-0.063,0.396-0.092
	C47.149,57.606,47.061,58.039,46.975,58.47z M46.909,60l0.308,2.729c-0.316,0.054-0.618,0.115-0.895,0.188
	C46.517,61.953,46.711,60.981,46.909,60z M47.251,63.043l0.165,1.451c-0.051,0.24-0.1,0.479-0.148,0.718
	c-0.524-0.089-0.978-0.201-1.343-0.326c0.108-0.539,0.217-1.078,0.328-1.623C46.546,63.181,46.881,63.106,47.251,63.043z
	 M47.438,65.554c0.032,0.008,0.064,0.012,0.098,0.019l0.554,4.916c-0.6,0.049-1.183,0.125-1.722,0.223
	C46.713,69.05,47.071,67.326,47.438,65.554z M47.779,65.603c0.585,0.074,1.209,0.117,1.829,0.125l-0.799,4.713
	c-0.161,0.009-0.322,0.017-0.481,0.027L47.779,65.603z M49.848,65.733c0.034,0,0.068,0,0.101,0c0.068,0,0.136,0,0.202,0l0.797,4.699
	c-0.337-0.015-0.674-0.021-1.01-0.021c-0.295,0-0.59,0.006-0.885,0.016L49.848,65.733z M50.391,65.728
	c0.626-0.016,1.248-0.062,1.832-0.137l-0.552,4.889c-0.159-0.014-0.319-0.024-0.479-0.034L50.391,65.728z M52.462,65.556
	c0.031-0.004,0.063-0.008,0.097-0.015c0.366,1.779,0.729,3.519,1.075,5.188c-0.541-0.102-1.122-0.18-1.729-0.231L52.462,65.556z
	 M52.581,64.494l0.162-1.438c0.373,0.063,0.711,0.141,1.006,0.223c0.108,0.533,0.215,1.063,0.319,1.59
	c-0.368,0.125-0.819,0.236-1.344,0.326C52.68,64.964,52.632,64.731,52.581,64.494z M53.936,63.011
	c-0.248-1.244-0.504-2.508-0.761-3.781l0.019-0.161c0.281-0.076,0.535-0.16,0.75-0.257c0.199,1.304,0.395,2.588,0.586,3.843
	c0.031,0.204,0.063,0.405,0.094,0.61C54.423,63.171,54.191,63.087,53.936,63.011z M53.229,58.774l0.16-1.426
	c0.127,0.039,0.243,0.08,0.348,0.123c0.057,0.354,0.111,0.713,0.164,1.065C53.718,58.621,53.488,58.701,53.229,58.774z
	 M53.419,57.074l0.106-0.97c0.056,0.354,0.109,0.709,0.162,1.062C53.604,57.134,53.514,57.103,53.419,57.074z M53.491,54.308
	c-0.07-0.453-0.142-0.908-0.209-1.365c0.145-0.055,0.271-0.112,0.383-0.18L53.491,54.308z M53.243,52.707
	c-0.054-0.354-0.109-0.711-0.164-1.067c0.315,0.106,0.545,0.228,0.674,0.349L53.7,52.468C53.593,52.552,53.438,52.632,53.243,52.707
	z M53.391,55.205l-0.203,1.802c-0.152-0.037-0.313-0.076-0.48-0.109c-0.242-1.207-0.486-2.418-0.73-3.629
	c0.398-0.063,0.767-0.146,1.078-0.246C53.167,53.757,53.277,54.483,53.391,55.205z M51.999,53.022l0.271-1.592
	c0.201,0.039,0.391,0.084,0.559,0.129c0.064,0.412,0.127,0.822,0.189,1.229C52.734,52.88,52.391,52.959,51.999,53.022z
	 M52.309,51.199l0.241-1.425c0.08,0.513,0.158,1.021,0.238,1.531C52.637,51.265,52.477,51.229,52.309,51.199z M52.391,47.226
	c0.131-0.028,0.252-0.063,0.366-0.098l-0.196,1.17C52.503,47.939,52.443,47.585,52.391,47.226z M52.355,47.014
	c-0.069-0.443-0.141-0.89-0.211-1.335c0.322,0.065,0.599,0.145,0.816,0.229l-0.166,0.98C52.665,46.934,52.52,46.974,52.355,47.014z
	 M52.507,41.149c0.08-0.389,0.16-0.776,0.24-1.161c0.469,0.147,0.756,0.323,0.803,0.497c-0.002,0.042-0.002,0.082-0.006,0.123
	C53.466,40.801,53.089,40.996,52.507,41.149z M52.251,41.21c-0.241,0.053-0.509,0.099-0.799,0.134
	c-0.089-0.551-0.179-1.101-0.267-1.648c0.51,0.05,0.963,0.129,1.332,0.227C52.432,40.349,52.341,40.779,52.251,41.21z M51.217,41.37
	c-0.181,0.018-0.369,0.034-0.564,0.044c0.105-0.529,0.211-1.056,0.316-1.575C51.052,40.348,51.134,40.858,51.217,41.37z
	 M49.348,41.417c-0.196-0.009-0.386-0.023-0.567-0.04c0.083-0.513,0.165-1.026,0.249-1.538
	C49.134,40.361,49.241,40.887,49.348,41.417z M48.544,41.353c-0.292-0.035-0.557-0.08-0.795-0.132
	c-0.091-0.438-0.181-0.875-0.271-1.31c0.366-0.098,0.818-0.175,1.336-0.225C48.724,40.242,48.634,40.797,48.544,41.353z
	 M47.494,41.161c-0.597-0.155-0.971-0.358-1.043-0.558c-0.001-0.039-0.003-0.076-0.004-0.113c0.042-0.179,0.327-0.36,0.8-0.512
	C47.33,40.369,47.411,40.765,47.494,41.161z M47.854,45.667c-0.071,0.453-0.144,0.905-0.215,1.355
	c-0.159-0.036-0.306-0.077-0.436-0.122l-0.171-1.003C47.251,45.811,47.53,45.731,47.854,45.667z M47.606,47.239
	c-0.057,0.354-0.111,0.709-0.167,1.061l-0.195-1.157C47.357,47.176,47.479,47.21,47.606,47.239z M47.448,49.774l0.239,1.412
	c-0.165,0.031-0.325,0.063-0.475,0.104C47.291,50.787,47.37,50.283,47.448,49.774z M47.728,51.418L48,53.035
	c-0.395-0.063-0.739-0.146-1.02-0.234c0.063-0.416,0.129-0.832,0.192-1.254C47.341,51.5,47.526,51.457,47.728,51.418z
	 M48.021,53.279c-0.243,1.202-0.485,2.405-0.726,3.604c-0.171,0.033-0.332,0.07-0.486,0.111l-0.201-1.783
	c0.11-0.721,0.223-1.445,0.335-2.172C47.256,53.138,47.623,53.216,48.021,53.279z M46.753,52.72c-0.195-0.08-0.346-0.16-0.452-0.246
	l-0.056-0.492c0.128-0.125,0.357-0.245,0.676-0.354C46.864,51.992,46.809,52.356,46.753,52.72z M46.715,52.955
	c-0.069,0.453-0.139,0.902-0.208,1.354l-0.172-1.532C46.444,52.843,46.571,52.904,46.715,52.955z M46.578,57.058
	c-0.093,0.029-0.183,0.058-0.267,0.088c0.053-0.344,0.106-0.69,0.159-1.037L46.578,57.058z M46.608,57.337l0.164,1.452
	c-0.267-0.073-0.491-0.153-0.676-0.243c0.056-0.359,0.111-0.726,0.168-1.091C46.368,57.412,46.485,57.371,46.608,57.337z
	 M46.806,59.08l0.018,0.148c-0.256,1.266-0.51,2.52-0.758,3.762c-0.256,0.074-0.485,0.158-0.685,0.254
	c0.03-0.194,0.059-0.391,0.089-0.586c0.19-1.254,0.385-2.533,0.584-3.834C46.271,58.923,46.523,59.007,46.806,59.08z M45.993,63.341
	c-0.099,0.487-0.196,0.979-0.294,1.463c-0.141-0.058-0.26-0.113-0.363-0.172l-0.04-0.83c0.008-0.06,0.018-0.117,0.026-0.175
	C45.499,63.524,45.723,63.429,45.993,63.341z M45.636,65.117c-0.075,0.371-0.149,0.741-0.223,1.108l-0.061-1.229
	C45.441,65.035,45.536,65.078,45.636,65.117z M45.402,70.925c-0.268,0.069-0.517,0.149-0.743,0.235
	c0.198-0.979,0.401-1.989,0.608-3.016L45.402,70.925z M45.459,67.195c0.133-0.658,0.267-1.324,0.402-1.996
	c0.39,0.127,0.846,0.235,1.343,0.317c-0.375,1.81-0.739,3.56-1.087,5.24c-0.164,0.032-0.325,0.069-0.479,0.106L45.459,67.195z
	 M46.031,71.171c-0.104,0.5-0.207,0.993-0.309,1.481l-0.066-1.396C45.775,71.224,45.901,71.197,46.031,71.171z M46.284,71.119
	c0.547-0.105,1.169-0.191,1.849-0.246l0.241,2.139l-0.152,0.9c-0.938-0.072-1.762-0.199-2.442-0.363
	C45.944,72.759,46.113,71.947,46.284,71.119z M48.986,70.82c0.308-0.013,0.625-0.021,0.95-0.021c0.369,0,0.728,0.01,1.074,0.024
	l0.371,2.193l-0.104,0.918c-0.43,0.027-0.878,0.039-1.343,0.039c-0.422,0-0.827-0.012-1.218-0.031l-0.105-0.926L48.986,70.82z
	 M51.863,70.882c0.681,0.059,1.304,0.146,1.855,0.256c0.168,0.813,0.334,1.61,0.496,2.392c-0.686,0.163-1.514,0.297-2.441,0.373
	l-0.149-0.894L51.863,70.882z M53.971,71.188c0.129,0.029,0.254,0.06,0.37,0.089l-0.065,1.377
	C54.175,72.171,54.073,71.685,53.971,71.188z M53.887,70.779c-0.351-1.691-0.718-3.453-1.095-5.275
	c0.496-0.086,0.953-0.195,1.34-0.326c0.138,0.682,0.272,1.352,0.406,2.018l-0.181,3.691C54.206,70.847,54.048,70.813,53.887,70.779z
	 M54.577,71.339c0.325,0.092,0.614,0.19,0.856,0.297c0.092,0.465,0.187,0.92,0.275,1.373c-0.307,0.164-0.723,0.319-1.238,0.457
	L54.577,71.339z M55.7,71.763c0.094,0.049,0.176,0.096,0.248,0.147c0.043,0.285,0.088,0.568,0.131,0.851
	c-0.043,0.039-0.095,0.08-0.152,0.121C55.852,72.511,55.775,72.14,55.7,71.763z M54.827,61.22l-0.065,1.383
	c-0.195-1.274-0.394-2.578-0.597-3.903c0.133-0.072,0.242-0.148,0.332-0.232C54.6,59.351,54.708,60.269,54.827,61.22z M54.12,58.416
	c-0.041-0.272-0.082-0.551-0.125-0.827c0.278,0.146,0.438,0.299,0.438,0.448C54.436,58.162,54.32,58.293,54.12,58.416z
	 M54.391,57.521c-0.119-0.092-0.271-0.176-0.443-0.254c-0.105-0.685-0.211-1.373-0.316-2.063l0.281-2.502
	C54.038,54.201,54.198,55.798,54.391,57.521z M53.813,51.474l-0.029,0.244c-0.184-0.129-0.438-0.244-0.742-0.338
	c-0.123-0.779-0.244-1.562-0.365-2.342l0.336-1.998c0.219-0.084,0.396-0.182,0.525-0.288C53.589,48.22,53.68,49.783,53.813,51.474z
	 M54.139,34.03c-0.271,2.032-0.468,4.021-0.572,6.123c-0.172-0.146-0.439-0.271-0.773-0.376c0.406-1.962,0.801-3.85,1.168-5.632
	C54.025,34.106,54.087,34.07,54.139,34.03z M53.689,34.278c-0.366,1.769-0.744,3.584-1.127,5.431
	c-0.412-0.107-0.897-0.188-1.414-0.237c-0.019-0.098-0.032-0.194-0.047-0.293c0.308-1.538,0.607-3.033,0.896-4.472
	C52.665,34.61,53.255,34.465,53.689,34.278z M50.99,38.515c-0.199-1.229-0.403-2.455-0.607-3.672
	c0.469-0.013,0.93-0.049,1.368-0.104C51.507,35.96,51.252,37.223,50.99,38.515z M49.616,34.844
	c-0.205,1.217-0.409,2.443-0.609,3.673c-0.261-1.291-0.514-2.549-0.759-3.768C48.687,34.801,49.151,34.834,49.616,34.844z
	 M48,34.718c0.288,1.437,0.589,2.927,0.897,4.46c-0.016,0.096-0.031,0.191-0.048,0.286c-0.514,0.046-1.004,0.124-1.418,0.232
	c-0.382-1.838-0.757-3.643-1.122-5.402C46.748,34.482,47.339,34.625,48,34.718z M45.86,34.044c0.054,0.041,0.113,0.08,0.179,0.118
	c0.369,1.772,0.76,3.65,1.165,5.601c-0.334,0.104-0.602,0.232-0.773,0.38C46.327,38.049,46.131,36.069,45.86,34.044z M46.46,46.763
	c0.128,0.109,0.309,0.207,0.528,0.292l0.336,1.984c-0.123,0.778-0.243,1.555-0.363,2.326c-0.307,0.096-0.563,0.209-0.748,0.34
	l-0.027-0.23C46.318,49.785,46.408,48.228,46.46,46.763z M46.087,52.701l0.281,2.504c-0.105,0.687-0.21,1.367-0.313,2.045
	c-0.175,0.076-0.326,0.162-0.446,0.257C45.801,55.789,45.958,54.199,46.087,52.701z M46.005,57.576
	c-0.043,0.282-0.087,0.567-0.129,0.852c-0.201-0.127-0.31-0.26-0.31-0.389C45.566,57.884,45.723,57.724,46.005,57.576z
	 M45.501,58.474c0.086,0.088,0.198,0.164,0.331,0.242c-0.202,1.319-0.4,2.621-0.594,3.891L45.17,61.22
	C45.289,60.274,45.398,59.358,45.501,58.474z M45.221,67.175c-0.282,1.403-0.559,2.771-0.825,4.096
	c-0.094,0.043-0.183,0.086-0.266,0.129c0.317-2.049,0.646-4.198,0.985-6.416L45.221,67.175z M44.972,64.351
	c-0.061-0.073-0.093-0.149-0.093-0.229c0-0.1,0.063-0.205,0.175-0.307C45.026,63.996,44.999,64.173,44.972,64.351z M44.999,62.576
	l0.04,0.856c-0.061,0.039-0.117,0.082-0.167,0.125C44.914,63.228,44.957,62.899,44.999,62.576z M43.778,71.378
	c0.357-2.441,0.679-4.71,0.961-6.818c0.049,0.058,0.106,0.113,0.175,0.168c-0.36,2.369-0.711,4.658-1.049,6.834
	c-0.03,0.019-0.06,0.039-0.088,0.063L43.778,71.378L43.778,71.378z M43.778,73.662c0.024-0.151,0.048-0.307,0.072-0.459
	c0.044,0.029,0.089,0.062,0.137,0.088c-0.069,0.351-0.14,0.695-0.209,1.037V73.662z M43.778,80.22v-4.688
	c0.14-0.688,0.282-1.394,0.428-2.115c0.345,0.174,0.775,0.326,1.266,0.455c-0.472,2.27-0.905,4.362-1.29,6.225
	C44.042,80.136,43.906,80.175,43.778,80.22z M44.438,80.017c0.345-1.662,0.727-3.508,1.139-5.485l0.251,5.188
	C45.324,79.804,44.858,79.904,44.438,80.017z M46.062,79.679l-0.276-5.731c0.712,0.161,1.524,0.278,2.371,0.348l-0.884,5.232
	C46.852,79.57,46.446,79.619,46.062,79.679z M47.517,79.505l0.878-5.193c0.042,0.002,0.085,0.006,0.127,0.011l0.573,5.094
	C48.55,79.429,48.021,79.459,47.517,79.505z M49.923,79.399c-0.198,0-0.395,0.007-0.589,0.009l-0.571-5.074
	c0.39,0.021,0.783,0.031,1.175,0.031c0.433,0,0.869-0.013,1.3-0.039l-0.572,5.086C50.42,79.406,50.173,79.399,49.923,79.399z
	 M50.9,79.418l0.576-5.104c0.041-0.004,0.082-0.008,0.123-0.012l0.885,5.217C51.977,79.472,51.448,79.435,50.9,79.418z
	 M52.729,79.543l-0.891-5.26c0.854-0.071,1.665-0.194,2.376-0.358l-0.28,5.774C53.55,79.642,53.146,79.584,52.729,79.543z
	 M54.169,79.742l0.254-5.218c0.412,1.996,0.795,3.853,1.146,5.525C55.145,79.933,54.673,79.826,54.169,79.742z M56.221,80.248
	c-0.128-0.043-0.263-0.086-0.396-0.125c-0.389-1.873-0.826-3.983-1.301-6.274c0.492-0.127,0.92-0.281,1.266-0.455
	c0.146,0.729,0.291,1.44,0.432,2.138V80.248L56.221,80.248z M56.221,74.33c-0.072-0.35-0.144-0.7-0.214-1.059
	c0.05-0.029,0.097-0.059,0.14-0.09c0.022,0.158,0.051,0.314,0.074,0.471V74.33z M56.221,71.646
	c-0.027-0.021-0.054-0.039-0.084-0.057c-0.341-2.189-0.689-4.49-1.056-6.875c0.067-0.054,0.127-0.109,0.176-0.162
	c0.285,2.11,0.603,4.381,0.964,6.828V71.646z M56.456,75.162c0.088,0.547,0.174,1.086,0.258,1.613
	c-0.084-0.416-0.168-0.84-0.258-1.271V75.162z M56.456,80.337v-3.632c0.082,0.402,0.162,0.798,0.239,1.183
	c0.201,1,0.394,1.944,0.572,2.838C57.042,80.589,56.771,80.455,56.456,80.337z M57.646,80.998c-0.367-2.184-0.769-4.664-1.189-7.36
	v-0.651c0.373,2.5,0.783,5.178,1.234,8.057C57.675,81.029,57.659,81.013,57.646,80.998z"/>
</svg>
