<?xml version="1.0" encoding="utf-8"?>
<!-- Generator: Adobe Illustrator 13.0.0, SVG Export Plug-In . SVG Version: 6.00 Build 14948)  -->
<!DOCTYPE svg PUBLIC "-//W3C//DTD SVG 1.1//EN" "http://www.w3.org/Graphics/SVG/1.1/DTD/svg11.dtd">
<svg version="1.1" id="レイヤー_1" xmlns="http://www.w3.org/2000/svg" xmlns:xlink="http://www.w3.org/1999/xlink" x="0px"
	 y="0px" width="110px" height="110px" viewBox="0 0 110 110" enable-background="new 0 0 110 110" xml:space="preserve">
<circle fill="#B2B2B2" cx="54.763" cy="53.595" r="50"/>
<path d="M63.965,93.807l0.012-0.004l-0.029-0.105c-0.004-0.063-0.012-0.125-0.029-0.188c-0.986-6.117-1.82-11.449-2.516-16.145
	c0.025-0.076,0.041-0.152,0.041-0.23c0-0.146-0.051-0.283-0.137-0.414c-0.031-0.205-0.059-0.408-0.09-0.613v-0.115h-0.018
	c-0.379-2.588-0.715-4.975-1.006-7.188c-0.004-0.012-0.006-0.025-0.006-0.035c-0.131-0.971-0.25-1.906-0.365-2.813l0.004-0.006
	l0.004-0.119l-0.02-0.002c-0.129-1.023-0.246-2.004-0.354-2.951c0.008-0.033,0.012-0.063,0.012-0.096
	c0-0.066-0.016-0.131-0.043-0.195c-0.229-2.025-0.412-3.889-0.557-5.617c0-0.008,0.004-0.014,0.004-0.021
	c0-0.018-0.006-0.037-0.01-0.059c-0.018-0.225-0.037-0.447-0.055-0.67l0.002-0.016l0.014-0.115l-0.025-0.006
	c-0.246-3.221-0.344-5.977-0.314-8.499l0.018-0.106l-0.018-0.002c0.041-3.226,0.291-6.074,0.701-9.036
	c0.02-0.054,0.033-0.109,0.033-0.166c0-0.012-0.004-0.023-0.006-0.035c0.299-2.131,0.68-4.327,1.127-6.771
	c0.066-0.106,0.107-0.218,0.107-0.335c0-0.047-0.008-0.094-0.018-0.14c0.137-0.749,0.279-1.521,0.428-2.322
	c0.033-0.175,0.064-0.355,0.098-0.534c0.527-2.522,0.84-4.041,0.859-4.141l0.025-0.116l-0.047-0.009
	c-0.072-0.507-0.699-0.929-1.646-1.252c0.006-0.029,0.008-0.047,0.008-0.047l0.023-0.116l-0.232-0.047l-0.021,0.117
	c0,0.004-0.004,0.012-0.004,0.02c-0.609-0.188-1.332-0.338-2.113-0.448l0.018-0.097l-0.23-0.047l-0.025,0.111
	c-0.758-0.096-1.567-0.152-2.381-0.168v-9.732h-0.847v9.732c-0.81,0.012-1.625,0.063-2.392,0.156l-0.021-0.096l-0.232,0.047
	l0.017,0.081c-0.78,0.104-1.504,0.251-2.113,0.44l-0.023-0.113l-0.233,0.045l0.022,0.116c0,0,0.002,0.009,0.005,0.023
	c-0.943,0.321-1.57,0.747-1.643,1.276l-0.047,0.01L47.704,24c0.021,0.1,0.337,1.619,0.861,4.14c0.032,0.179,0.066,0.359,0.098,0.534
	c0.149,0.802,0.293,1.575,0.431,2.324c-0.011,0.045-0.018,0.091-0.018,0.138c0,0.123,0.038,0.238,0.106,0.348
	c0.445,2.442,0.825,4.636,1.126,6.764c0,0.012-0.006,0.02-0.006,0.03c0,0.059,0.014,0.114,0.033,0.169
	c0.41,2.962,0.659,5.809,0.7,9.033l-0.016,0.002l0.018,0.104c0.028,2.523-0.068,5.278-0.315,8.5l-0.025,0.004l0.015,0.131
	c-0.018,0.23-0.035,0.457-0.055,0.689c0,0.014-0.006,0.027-0.006,0.039c0,0.006,0.001,0.01,0.002,0.016
	c-0.143,1.73-0.328,3.594-0.555,5.621c-0.027,0.066-0.043,0.131-0.043,0.199c0,0.031,0.004,0.061,0.01,0.09
	c-0.108,0.951-0.226,1.932-0.353,2.957l-0.022,0.002l0.006,0.123c-0.374,2.982-0.828,6.301-1.375,10.035h-0.018v0.117
	c-0.028,0.199-0.059,0.396-0.088,0.598c-0.088,0.135-0.138,0.277-0.138,0.428c0,0.08,0.015,0.16,0.039,0.234
	c-0.695,4.691-1.529,10.023-2.516,16.141c-0.015,0.057-0.024,0.109-0.027,0.166c-0.001,0.008-0.003,0.018-0.004,0.025l-0.001,0.012
	l-0.024,0.09l0.009,0.004l-0.001,0.012h0.001l-0.001,0.008l0.028,0.006c0.201,1.41,4.121,2.498,9.094,2.498
	c4.979,0,9.054-1.113,9.267-2.498l0.025-0.006l-0.002-0.012h0.002L63.965,93.807z M48.304,85.057
	c-0.313,0.119-0.581,0.25-0.807,0.387c0.178-0.881,0.368-1.82,0.567-2.809c0.078-0.385,0.158-0.783,0.239-1.184V85.057z
	 M48.304,80.252c-0.086,0.418-0.168,0.826-0.248,1.23c0.082-0.51,0.164-1.029,0.248-1.563V80.252z M48.304,78.391
	c-0.421,2.686-0.816,5.156-1.183,7.33c-0.019,0.018-0.033,0.031-0.048,0.045c0.45-2.869,0.858-5.541,1.229-8.033L48.304,78.391
	L48.304,78.391z M59.758,67.322c0.045,0.332,0.086,0.662,0.131,1.002c-0.053-0.045-0.111-0.088-0.174-0.131L59.758,67.322z
	 M59.881,68.873c0,0.074-0.035,0.146-0.096,0.221c-0.025-0.174-0.051-0.346-0.08-0.52C59.814,68.674,59.881,68.771,59.881,68.873z
	 M60.631,76.176c-0.082-0.045-0.17-0.09-0.264-0.133c-0.27-1.332-0.547-2.707-0.83-4.121l0.105-2.195
	C59.982,71.957,60.313,74.115,60.631,76.176z M56.241,76.912l-0.225-1.326c0.124,0.006,0.248,0.018,0.368,0.025L56.241,76.912z
	 M56.298,78.668c-0.006,0-0.011,0-0.016,0.002l0.007-0.059L56.298,78.668z M53.133,75.6c0.123-0.008,0.248-0.016,0.374-0.021
	l-0.226,1.334L53.133,75.6z M53.241,78.678c-0.006,0-0.013-0.004-0.019-0.004l0.012-0.063L53.241,78.678z M49.331,76.361
	c0.239-0.105,0.526-0.205,0.853-0.297l0.105,2.166c-0.515-0.135-0.936-0.293-1.242-0.463C49.141,77.307,49.235,76.838,49.331,76.361
	z M48.831,77.639c-0.057-0.041-0.106-0.08-0.151-0.121c0.046-0.291,0.09-0.582,0.137-0.875c0.07-0.053,0.153-0.104,0.245-0.15
	C48.984,76.875,48.907,77.26,48.831,77.639z M51.572,50.748l0.135,0.801c-0.27-0.118-0.436-0.25-0.473-0.378
	c0.002-0.044,0.004-0.086,0.005-0.128C51.277,50.941,51.394,50.842,51.572,50.748z M51.25,50.703
	c0.015-0.578,0.025-1.141,0.029-1.692l0.256,1.514C51.423,50.58,51.328,50.639,51.25,50.703z M51.275,47.572
	c-0.007-0.638-0.023-1.261-0.046-1.872c0.231,0.183,0.611,0.333,1.077,0.445c0.184,0.888,0.371,1.789,0.561,2.699
	c-0.072,0.446-0.143,0.895-0.215,1.341c-0.336,0.064-0.64,0.146-0.894,0.241L51.275,47.572z M54.721,39.597
	c0.062,0,0.122-0.002,0.185-0.003c0.241,1.434,0.48,2.878,0.717,4.327c-0.018,0.09-0.036,0.18-0.054,0.27
	c-0.278-0.018-0.56-0.029-0.842-0.029c-0.258,0-0.516,0.009-0.771,0.024c-0.019-0.088-0.035-0.176-0.054-0.264
	c0.238-1.45,0.476-2.895,0.718-4.328C54.652,39.595,54.686,39.597,54.721,39.597z M58.279,51.037
	c0.002,0.046,0.004,0.092,0.004,0.137c-0.039,0.124-0.203,0.25-0.471,0.365l0.133-0.782C58.121,50.847,58.238,50.941,58.279,51.037z
	 M57.982,50.537l0.26-1.526c0.004,0.553,0.014,1.121,0.029,1.702C58.191,50.651,58.096,50.591,57.982,50.537z M58.244,47.573
	l-0.486,2.867c-0.252-0.096-0.554-0.178-0.887-0.243c-0.072-0.451-0.143-0.903-0.217-1.355c0.191-0.915,0.376-1.819,0.562-2.71
	c0.466-0.114,0.843-0.263,1.073-0.443C58.268,46.305,58.25,46.931,58.244,47.573z M59.488,72.893
	c0.209,1.035,0.414,2.051,0.613,3.041c-0.227-0.084-0.477-0.166-0.75-0.24L59.488,72.893z M59.344,70.973
	c-0.074-0.373-0.15-0.752-0.229-1.129c0.102-0.041,0.199-0.082,0.289-0.123L59.344,70.973z M59.422,69.367
	c-0.105,0.057-0.229,0.113-0.369,0.168c-0.094-0.473-0.191-0.949-0.287-1.43c0.27,0.088,0.494,0.184,0.672,0.281
	c0.008,0.053,0.016,0.104,0.023,0.156L59.422,69.367z M54.762,68.164l-0.099-0.584c0.017,0,0.033,0,0.048,0
	c0.051,0,0.1,0.004,0.149,0.004L54.762,68.164z M54.859,70.16c-0.05,0-0.099,0.004-0.149,0.004c-0.015,0-0.031,0-0.047,0l0.098-0.58
	L54.859,70.16z M54.711,67.264c-0.033,0-0.067,0.002-0.101,0.002l-0.526-3.1c0.213,0.008,0.423,0.014,0.634,0.014
	c0.24,0,0.481-0.01,0.72-0.018l-0.524,3.104C54.847,67.266,54.779,67.264,54.711,67.264z M54.883,50.007
	c-0.053-0.002-0.104-0.003-0.156-0.003c-0.029,0-0.058,0.001-0.088,0.001c0.04-0.201,0.082-0.401,0.122-0.603
	C54.803,49.603,54.843,49.805,54.883,50.007z M54.398,46.396c0.11,0.001,0.22,0.004,0.328,0.004c0.134,0,0.266-0.003,0.398-0.007
	c-0.12,0.598-0.24,1.199-0.363,1.807C54.639,47.592,54.52,46.992,54.398,46.396z M54.727,50.224c0.068,0,0.134,0.001,0.202,0.002
	c0.117,0.587,0.236,1.176,0.355,1.77c-0.179,0.009-0.365,0.015-0.557,0.015c-0.168,0-0.329-0.006-0.487-0.011
	c0.119-0.595,0.238-1.185,0.356-1.774C54.639,50.225,54.682,50.224,54.727,50.224z M54.724,55.973c0.07,0,0.139,0.002,0.21,0.004
	c-0.058,0.273-0.114,0.549-0.172,0.826c-0.057-0.277-0.114-0.553-0.171-0.828C54.635,55.975,54.679,55.973,54.724,55.973z
	 M54.541,55.736c-0.179-0.859-0.355-1.718-0.535-2.578c0.064-0.316,0.127-0.629,0.191-0.944c0.177,0.008,0.354,0.014,0.53,0.014
	c0.201,0,0.401-0.006,0.601-0.017c0.063,0.315,0.127,0.631,0.19,0.947c-0.178,0.859-0.356,1.721-0.535,2.578
	c-0.087,0-0.173-0.004-0.259-0.004C54.663,55.734,54.603,55.736,54.541,55.736z M54.724,58.168c0.026,0,0.053-0.002,0.08-0.002
	c0.225,1.082,0.449,2.164,0.673,3.244c-0.252-0.012-0.505-0.018-0.758-0.018c-0.224,0-0.447,0.006-0.67,0.014
	c0.224-1.076,0.447-2.158,0.672-3.238C54.722,58.168,54.723,58.168,54.724,58.168z M54.718,61.666c0.281,0,0.551,0.008,0.816,0.021
	c0.059,0.287,0.118,0.572,0.178,0.859l-0.227,1.338c-0.249,0.012-0.503,0.02-0.768,0.02c-0.234,0-0.46-0.008-0.68-0.018l-0.228-1.34
	c0.06-0.289,0.119-0.574,0.18-0.865C54.226,61.674,54.467,61.666,54.718,61.666z M55.682,64.15c0.12-0.01,0.238-0.018,0.356-0.027
	c0.227,1.094,0.451,2.178,0.675,3.252c-0.503-0.059-1.029-0.092-1.56-0.105L55.682,64.15z M55.729,63.871l0.114-0.686
	c0.047,0.223,0.093,0.445,0.14,0.668C55.899,63.859,55.813,63.865,55.729,63.871z M55.779,61.703
	c0.025,0.002,0.05,0.002,0.075,0.004l-0.033,0.195C55.807,61.838,55.793,61.771,55.779,61.703z M55.722,61.426
	c-0.225-1.084-0.451-2.172-0.677-3.262c0.489-0.014,0.973-0.051,1.426-0.111l-0.571,3.385
	C55.841,61.432,55.782,61.428,55.722,61.426z M54.996,57.924c-0.039-0.18-0.076-0.361-0.114-0.539
	c0.099-0.471,0.196-0.938,0.293-1.404c0.324,0.01,0.632,0.031,0.924,0.063c0.118,0.588,0.236,1.18,0.354,1.773
	C56.013,57.875,55.521,57.914,54.996,57.924z M55.224,55.744c0.139-0.666,0.277-1.33,0.414-1.994
	c0.136,0.682,0.273,1.365,0.411,2.048C55.779,55.773,55.502,55.752,55.224,55.744z M55.642,52.567
	c-0.024-0.123-0.05-0.245-0.073-0.368c0.05-0.003,0.103-0.007,0.152-0.011C55.692,52.315,55.667,52.441,55.642,52.567z
	 M55.524,51.983c-0.119-0.586-0.236-1.17-0.354-1.751c0.333,0.012,0.646,0.034,0.939,0.067c-0.114,0.554-0.229,1.111-0.344,1.668
	C55.687,51.974,55.605,51.979,55.524,51.983z M53.999,51.988c-0.082-0.005-0.16-0.011-0.241-0.018
	c-0.116-0.56-0.232-1.12-0.348-1.678c0.291-0.033,0.606-0.055,0.942-0.065C54.236,50.813,54.117,51.398,53.999,51.988z
	 M53.955,52.203c-0.024,0.12-0.049,0.241-0.073,0.364c-0.025-0.125-0.052-0.25-0.077-0.374C53.856,52.196,53.905,52.2,53.955,52.203
	z M53.887,53.75c0.137,0.662,0.273,1.324,0.413,1.99c-0.278,0.01-0.555,0.025-0.824,0.051C53.612,55.11,53.75,54.43,53.887,53.75z
	 M54.348,55.98c0.099,0.467,0.195,0.934,0.293,1.404c-0.037,0.18-0.074,0.361-0.112,0.541c-0.532-0.008-1.023-0.043-1.463-0.1
	c0.122-0.598,0.241-1.195,0.361-1.789C53.716,56.006,54.023,55.986,54.348,55.98z M54.479,58.164
	c-0.228,1.09-0.452,2.176-0.677,3.254c-0.061,0.004-0.12,0.008-0.181,0.012l-0.57-3.367C53.508,58.121,53.994,58.156,54.479,58.164z
	 M53.745,61.695c-0.015,0.07-0.029,0.141-0.042,0.209l-0.036-0.201C53.693,61.699,53.719,61.697,53.745,61.695z M53.678,63.186
	l0.118,0.691c-0.088-0.004-0.172-0.012-0.258-0.018C53.586,63.635,53.632,63.41,53.678,63.186z M53.842,64.154l0.526,3.113
	c-0.526,0.01-1.054,0.043-1.558,0.096c0.222-1.068,0.446-2.146,0.671-3.234C53.602,64.139,53.721,64.146,53.842,64.154z
	 M52.563,67.391c-0.118,0.016-0.234,0.031-0.349,0.051l-0.389-3.455c0.006-0.029,0.013-0.063,0.019-0.092
	c0.425,0.096,0.902,0.166,1.399,0.215C53.015,65.217,52.787,66.311,52.563,67.391z M52.495,67.719
	c-0.054,0.26-0.109,0.52-0.163,0.779l-0.084-0.746C52.328,67.74,52.412,67.729,52.495,67.719z M52.744,67.688
	c0.512-0.057,1.076-0.092,1.679-0.104l0.219,1.291l-0.218,1.283c-0.699-0.01-1.342-0.057-1.918-0.131l-0.087-0.77
	C52.525,68.736,52.635,68.215,52.744,67.688z M55.101,67.584c0.599,0.014,1.164,0.053,1.681,0.115
	c0.107,0.52,0.216,1.039,0.321,1.559l-0.086,0.756c-0.579,0.082-1.224,0.131-1.916,0.145l-0.219-1.283L55.101,67.584z
	 M57.028,67.732c0.082,0.01,0.162,0.02,0.242,0.031l-0.082,0.734C57.134,68.244,57.081,67.988,57.028,67.732z M56.96,67.406
	c-0.224-1.088-0.454-2.191-0.684-3.307c0.499-0.051,0.973-0.123,1.397-0.219c0.006,0.035,0.016,0.07,0.021,0.105l-0.392,3.467
	C57.19,67.436,57.077,67.42,56.96,67.406z M57.848,64.748c0.199,0.986,0.396,1.967,0.592,2.936c-0.277-0.072-0.58-0.137-0.9-0.191
	L57.848,64.748z M57.783,63.217c-0.088-0.428-0.176-0.854-0.26-1.281c0.137,0.029,0.27,0.061,0.391,0.092L57.783,63.217z
	 M57.619,63.615c-0.405,0.092-0.877,0.164-1.399,0.217c-0.088-0.43-0.178-0.859-0.266-1.291l0.138-0.818
	c0.428,0.041,0.824,0.094,1.181,0.16C57.388,62.463,57.504,63.039,57.619,63.615z M56.136,61.457l0.479-2.836
	c0.199,0.994,0.399,1.986,0.599,2.977C56.875,61.537,56.512,61.49,56.136,61.457z M56.595,57.32
	c-0.085-0.418-0.167-0.836-0.25-1.252c0.156,0.021,0.307,0.043,0.45,0.066L56.595,57.32z M56.296,55.824
	c-0.18-0.89-0.358-1.779-0.535-2.664c0.068-0.333,0.137-0.664,0.206-0.996c0.334-0.033,0.655-0.081,0.95-0.141
	c0.094,0.588,0.186,1.173,0.275,1.757l-0.358,2.121C56.66,55.873,56.48,55.846,56.296,55.824z M56.013,51.942
	c0.111-0.54,0.224-1.078,0.334-1.611c0.106,0.014,0.212,0.03,0.312,0.048c0.076,0.479,0.152,0.956,0.227,1.433
	C56.622,51.864,56.33,51.909,56.013,51.942z M56.391,50.117c0.042-0.208,0.086-0.414,0.129-0.619
	c0.034,0.218,0.068,0.437,0.103,0.654C56.547,50.14,56.469,50.127,56.391,50.117z M56.551,48.183
	c-0.101-0.625-0.201-1.25-0.301-1.876c0.248-0.031,0.49-0.069,0.714-0.117C56.825,46.851,56.688,47.516,56.551,48.183z
	 M56.414,48.836c-0.086,0.416-0.171,0.832-0.259,1.25c-0.332-0.04-0.678-0.064-1.029-0.076c-0.081-0.405-0.163-0.809-0.244-1.21
	c0.164-0.813,0.326-1.619,0.486-2.417c0.219-0.012,0.434-0.028,0.645-0.05C56.147,47.168,56.282,48.002,56.414,48.836z
	 M55.169,46.171c-0.144,0.005-0.29,0.009-0.442,0.009c-0.126,0-0.25-0.002-0.372-0.006c-0.12-0.596-0.238-1.186-0.356-1.771
	c0.232-0.014,0.476-0.02,0.729-0.02c0.277,0,0.542,0.008,0.798,0.025C55.407,44.991,55.289,45.579,55.169,46.171z M54.641,48.8
	c-0.081,0.401-0.161,0.805-0.243,1.209c-0.349,0.01-0.697,0.032-1.031,0.07c-0.087-0.414-0.174-0.827-0.259-1.242
	c0.133-0.831,0.267-1.664,0.4-2.497c0.212,0.021,0.429,0.036,0.646,0.046C54.314,47.183,54.477,47.989,54.641,48.8z M52.971,48.184
	c-0.137-0.662-0.273-1.324-0.41-1.981c0.224,0.044,0.464,0.082,0.711,0.113C53.172,46.938,53.071,47.561,52.971,48.184z
	 M53.002,49.497c0.042,0.203,0.085,0.407,0.127,0.612c-0.078,0.01-0.153,0.021-0.229,0.035
	C52.935,49.927,52.968,49.713,53.002,49.497z M53.173,50.321c0.112,0.54,0.226,1.083,0.339,1.63
	c-0.32-0.033-0.614-0.077-0.877-0.129c0.075-0.482,0.152-0.969,0.229-1.455C52.965,50.351,53.065,50.336,53.173,50.321z
	 M53.559,52.171c0.068,0.331,0.137,0.658,0.206,0.99c-0.178,0.881-0.356,1.77-0.536,2.656c-0.187,0.02-0.368,0.047-0.544,0.074
	l-0.356-2.107c0.09-0.582,0.182-1.165,0.273-1.748C52.899,52.094,53.222,52.141,53.559,52.171z M53.179,56.061
	c-0.085,0.418-0.168,0.838-0.253,1.26l-0.202-1.195C52.869,56.102,53.019,56.078,53.179,56.061z M53.384,61.449
	c-0.372,0.031-0.735,0.076-1.075,0.137c0.199-0.986,0.397-1.975,0.597-2.965L53.384,61.449z M53.43,61.719l0.141,0.822
	c-0.09,0.436-0.181,0.867-0.27,1.299c-0.526-0.049-0.999-0.121-1.403-0.213c0.118-0.582,0.235-1.168,0.354-1.756
	C52.605,61.805,53.001,61.754,53.43,61.719z M51.737,63.217l-0.135-1.203c0.124-0.033,0.257-0.063,0.396-0.092
	C51.912,62.354,51.823,62.787,51.737,63.217z M51.672,64.748l0.308,2.729c-0.316,0.053-0.618,0.115-0.895,0.189
	C51.279,66.701,51.474,65.729,51.672,64.748z M52.014,67.791l0.165,1.451c-0.051,0.24-0.1,0.479-0.148,0.717
	c-0.524-0.088-0.978-0.201-1.343-0.326c0.108-0.539,0.217-1.078,0.328-1.623C51.309,67.928,51.644,67.854,52.014,67.791z
	 M52.201,70.301c0.032,0.008,0.064,0.012,0.098,0.018l0.554,4.916c-0.6,0.049-1.183,0.125-1.722,0.223
	C51.476,73.797,51.834,72.072,52.201,70.301z M52.542,70.35c0.585,0.074,1.209,0.117,1.829,0.125l-0.799,4.713
	c-0.161,0.008-0.322,0.016-0.481,0.027L52.542,70.35z M54.61,70.48c0.034,0,0.068,0,0.101,0c0.068,0,0.136,0,0.202,0l0.797,4.699
	c-0.336-0.014-0.674-0.021-1.01-0.021c-0.295,0-0.59,0.006-0.885,0.016L54.61,70.48z M55.153,70.475
	c0.626-0.016,1.245-0.061,1.828-0.137l-0.55,4.889c-0.158-0.014-0.319-0.025-0.479-0.035L55.153,70.475z M57.222,70.303
	c0.031-0.004,0.064-0.008,0.096-0.014c0.366,1.779,0.728,3.518,1.075,5.188c-0.541-0.102-1.122-0.18-1.727-0.232L57.222,70.303z
	 M57.341,69.242l0.161-1.438c0.373,0.063,0.711,0.141,1.006,0.223c0.109,0.533,0.215,1.063,0.32,1.59
	c-0.369,0.125-0.82,0.236-1.344,0.326C57.438,69.711,57.392,69.479,57.341,69.242z M58.693,67.758
	c-0.248-1.244-0.504-2.508-0.76-3.781l0.018-0.162c0.281-0.076,0.535-0.16,0.75-0.256c0.199,1.303,0.395,2.588,0.586,3.842
	c0.031,0.205,0.063,0.406,0.094,0.611C59.182,67.918,58.951,67.834,58.693,67.758z M57.986,63.521l0.16-1.426
	c0.127,0.039,0.244,0.08,0.348,0.123c0.057,0.355,0.111,0.713,0.164,1.066C58.477,63.369,58.248,63.449,57.986,63.521z
	 M58.178,61.82l0.107-0.969c0.055,0.355,0.109,0.709,0.162,1.061C58.363,61.881,58.271,61.85,58.178,61.82z M58.25,59.055
	c-0.07-0.453-0.141-0.908-0.209-1.365c0.145-0.055,0.271-0.113,0.383-0.18L58.25,59.055z M58.002,57.455
	c-0.053-0.355-0.109-0.711-0.164-1.068c0.316,0.107,0.545,0.227,0.674,0.348l-0.053,0.48C58.352,57.299,58.197,57.379,58.002,57.455
	z M58.148,59.953l-0.203,1.801c-0.152-0.037-0.313-0.076-0.479-0.109c-0.242-1.207-0.486-2.418-0.729-3.629
	c0.397-0.063,0.764-0.145,1.076-0.246C57.926,58.504,58.037,59.23,58.148,59.953z M56.76,57.77l0.269-1.592
	c0.201,0.039,0.391,0.084,0.558,0.129c0.064,0.412,0.127,0.822,0.189,1.229C57.494,57.627,57.149,57.707,56.76,57.77z
	 M57.067,55.945l0.242-1.423c0.08,0.512,0.158,1.021,0.237,1.531C57.396,56.012,57.235,55.977,57.067,55.945z M57.149,51.974
	c0.131-0.029,0.252-0.063,0.366-0.098l-0.196,1.169C57.263,52.688,57.204,52.332,57.149,51.974z M57.116,51.761
	c-0.07-0.444-0.141-0.89-0.21-1.335c0.321,0.065,0.596,0.144,0.814,0.229l-0.166,0.981C57.425,51.682,57.278,51.722,57.116,51.761z
	 M57.267,45.897c0.08-0.389,0.16-0.777,0.239-1.162c0.469,0.148,0.756,0.324,0.803,0.497c-0.002,0.042-0.002,0.083-0.006,0.124
	C58.225,45.548,57.848,45.744,57.267,45.897z M57.011,45.958c-0.24,0.053-0.508,0.099-0.797,0.134
	c-0.088-0.551-0.178-1.101-0.267-1.649c0.51,0.05,0.963,0.129,1.331,0.227C57.19,45.096,57.101,45.526,57.011,45.958z
	 M55.979,46.117c-0.181,0.018-0.368,0.034-0.565,0.044c0.107-0.529,0.212-1.055,0.318-1.575
	C55.813,45.096,55.896,45.606,55.979,46.117z M54.11,46.164c-0.196-0.009-0.386-0.023-0.567-0.04
	c0.083-0.513,0.165-1.026,0.249-1.538C53.896,45.108,54.004,45.634,54.11,46.164z M53.307,46.1c-0.292-0.035-0.557-0.08-0.795-0.132
	c-0.091-0.438-0.181-0.875-0.271-1.31c0.366-0.097,0.818-0.175,1.336-0.224C53.486,44.989,53.396,45.544,53.307,46.1z
	 M52.257,45.908c-0.597-0.155-0.971-0.358-1.043-0.557c-0.001-0.039-0.003-0.077-0.004-0.114c0.042-0.178,0.327-0.36,0.8-0.511
	C52.093,45.117,52.174,45.512,52.257,45.908z M52.617,50.414c-0.071,0.453-0.144,0.905-0.215,1.356
	c-0.159-0.037-0.306-0.078-0.436-0.122l-0.171-1.003C52.014,50.559,52.293,50.479,52.617,50.414z M52.369,51.986
	c-0.057,0.354-0.111,0.709-0.167,1.061l-0.195-1.157C52.12,51.923,52.242,51.957,52.369,51.986z M52.211,54.522l0.239,1.412
	c-0.165,0.031-0.325,0.064-0.475,0.105C52.054,55.535,52.133,55.03,52.211,54.522z M52.49,56.166l0.272,1.615
	c-0.395-0.063-0.739-0.145-1.02-0.234c0.063-0.416,0.129-0.832,0.192-1.254C52.104,56.248,52.289,56.205,52.49,56.166z
	 M52.784,58.025c-0.243,1.203-0.485,2.406-0.726,3.604c-0.171,0.033-0.332,0.07-0.486,0.111l-0.201-1.783
	c0.11-0.721,0.223-1.445,0.335-2.172C52.019,57.885,52.386,57.963,52.784,58.025z M51.516,57.467
	c-0.195-0.08-0.346-0.16-0.452-0.246l-0.056-0.492c0.128-0.125,0.357-0.246,0.676-0.355C51.627,56.738,51.571,57.104,51.516,57.467z
	 M51.478,57.703c-0.069,0.453-0.139,0.902-0.208,1.354l-0.172-1.533C51.207,57.59,51.334,57.65,51.478,57.703z M51.341,61.805
	c-0.093,0.029-0.183,0.057-0.267,0.088c0.053-0.344,0.106-0.691,0.159-1.037L51.341,61.805z M51.371,62.084l0.164,1.453
	c-0.267-0.074-0.491-0.154-0.676-0.244c0.056-0.359,0.111-0.725,0.168-1.09C51.131,62.16,51.248,62.119,51.371,62.084z
	 M51.568,63.828l0.018,0.148c-0.256,1.266-0.51,2.52-0.758,3.762c-0.256,0.074-0.485,0.158-0.685,0.254
	c0.03-0.195,0.059-0.391,0.089-0.586c0.19-1.254,0.385-2.533,0.584-3.834C51.033,63.67,51.286,63.754,51.568,63.828z M50.756,68.088
	c-0.099,0.488-0.196,0.979-0.294,1.463c-0.141-0.057-0.26-0.113-0.363-0.172l-0.04-0.83c0.008-0.059,0.018-0.117,0.026-0.174
	C50.262,68.271,50.485,68.176,50.756,68.088z M50.398,69.863c-0.075,0.371-0.149,0.742-0.223,1.109l-0.061-1.23
	C50.204,69.783,50.299,69.826,50.398,69.863z M50.165,75.672c-0.268,0.07-0.517,0.15-0.743,0.236c0.198-0.98,0.401-1.99,0.608-3.016
	L50.165,75.672z M50.222,71.941c0.133-0.658,0.267-1.324,0.402-1.996c0.39,0.127,0.846,0.236,1.343,0.318
	c-0.375,1.809-0.739,3.559-1.087,5.24c-0.164,0.033-0.325,0.07-0.479,0.107L50.222,71.941z M50.794,75.918
	c-0.104,0.5-0.207,0.994-0.309,1.482l-0.066-1.396C50.538,75.971,50.664,75.943,50.794,75.918z M51.047,75.865
	c0.547-0.105,1.169-0.191,1.849-0.246l0.241,2.139l-0.152,0.9c-0.938-0.072-1.762-0.199-2.442-0.363
	C50.707,77.506,50.876,76.693,51.047,75.865z M53.749,75.566c0.308-0.012,0.625-0.02,0.95-0.02c0.369,0,0.727,0.01,1.074,0.025
	l0.37,2.193l-0.103,0.918c-0.43,0.027-0.878,0.039-1.343,0.039c-0.422,0-0.827-0.012-1.218-0.031l-0.105-0.926L53.749,75.566z
	 M56.624,75.629c0.68,0.059,1.302,0.146,1.854,0.256c0.168,0.814,0.334,1.611,0.496,2.391c-0.686,0.164-1.513,0.297-2.439,0.373
	l-0.15-0.893L56.624,75.629z M58.729,75.936c0.129,0.029,0.254,0.059,0.371,0.088L59.033,77.4
	C58.934,76.918,58.832,76.432,58.729,75.936z M58.645,75.525c-0.35-1.691-0.717-3.453-1.094-5.275
	c0.496-0.086,0.953-0.195,1.34-0.326c0.137,0.682,0.273,1.352,0.406,2.018l-0.18,3.691C58.965,75.594,58.807,75.561,58.645,75.525z
	 M59.336,76.086c0.326,0.092,0.615,0.191,0.857,0.297c0.092,0.465,0.186,0.92,0.275,1.373c-0.307,0.164-0.723,0.32-1.238,0.457
	L59.336,76.086z M60.459,76.51c0.094,0.049,0.176,0.096,0.248,0.148c0.043,0.285,0.088,0.568,0.131,0.85
	c-0.043,0.039-0.094,0.08-0.152,0.121C60.609,77.258,60.535,76.887,60.459,76.51z M59.586,65.967L59.52,67.35
	c-0.195-1.275-0.393-2.578-0.596-3.904c0.133-0.072,0.242-0.148,0.332-0.232C59.357,64.098,59.467,65.016,59.586,65.967z
	 M58.879,63.164c-0.041-0.273-0.082-0.551-0.125-0.828c0.279,0.146,0.439,0.299,0.439,0.449
	C59.193,62.91,59.08,63.041,58.879,63.164z M59.148,62.268c-0.119-0.092-0.27-0.176-0.443-0.254
	c-0.105-0.684-0.211-1.373-0.316-2.063l0.281-2.502C58.797,58.949,58.957,60.545,59.148,62.268z M58.57,56.221l-0.029,0.244
	c-0.184-0.129-0.438-0.244-0.742-0.338c-0.123-0.779-0.244-1.56-0.364-2.341l0.335-1.998c0.219-0.084,0.396-0.181,0.525-0.288
	C58.348,52.967,58.438,54.53,58.57,56.221z M58.896,38.777c-0.271,2.033-0.467,4.021-0.572,6.123
	c-0.172-0.145-0.439-0.271-0.773-0.376c0.406-1.961,0.801-3.849,1.168-5.631C58.785,38.854,58.846,38.817,58.896,38.777z
	 M58.449,39.025c-0.367,1.769-0.744,3.584-1.126,5.431c-0.411-0.107-0.897-0.188-1.413-0.237c-0.018-0.098-0.032-0.195-0.047-0.293
	c0.308-1.538,0.607-3.033,0.896-4.472C57.425,39.357,58.014,39.212,58.449,39.025z M55.753,43.263
	c-0.199-1.23-0.404-2.455-0.607-3.672c0.468-0.013,0.928-0.049,1.366-0.104C56.269,40.708,56.014,41.97,55.753,43.263z
	 M54.379,39.591c-0.205,1.217-0.409,2.443-0.609,3.673c-0.261-1.291-0.514-2.549-0.759-3.768
	C53.449,39.548,53.914,39.582,54.379,39.591z M52.763,39.465c0.288,1.436,0.589,2.927,0.897,4.46
	c-0.016,0.096-0.031,0.191-0.048,0.286c-0.514,0.046-1.004,0.124-1.418,0.232c-0.382-1.837-0.757-3.642-1.122-5.402
	C51.511,39.23,52.102,39.372,52.763,39.465z M50.623,38.791c0.054,0.041,0.113,0.08,0.179,0.118c0.369,1.773,0.76,3.651,1.165,5.601
	c-0.334,0.104-0.602,0.232-0.773,0.38C51.09,42.796,50.894,40.816,50.623,38.791z M51.223,51.51
	c0.128,0.109,0.309,0.207,0.528,0.292l0.336,1.984c-0.123,0.779-0.243,1.555-0.363,2.326c-0.307,0.096-0.563,0.209-0.748,0.34
	l-0.027-0.23C51.081,54.534,51.171,52.975,51.223,51.51z M50.85,57.449l0.281,2.504c-0.105,0.686-0.21,1.367-0.313,2.045
	c-0.175,0.076-0.326,0.162-0.446,0.256C50.563,60.537,50.721,58.945,50.85,57.449z M50.768,62.322
	c-0.043,0.283-0.087,0.568-0.129,0.852c-0.201-0.127-0.31-0.26-0.31-0.389C50.329,62.631,50.485,62.471,50.768,62.322z
	 M50.264,63.221c0.086,0.088,0.198,0.164,0.331,0.242c-0.202,1.32-0.4,2.621-0.594,3.891l-0.068-1.387
	C50.052,65.021,50.161,64.105,50.264,63.221z M49.983,71.922c-0.282,1.404-0.559,2.771-0.825,4.096
	c-0.094,0.043-0.183,0.086-0.266,0.129c0.317-2.049,0.646-4.199,0.985-6.416L49.983,71.922z M49.734,69.098
	c-0.061-0.074-0.093-0.15-0.093-0.229c0-0.1,0.063-0.205,0.175-0.307C49.789,68.744,49.762,68.92,49.734,69.098z M49.762,67.322
	l0.04,0.857c-0.061,0.039-0.117,0.082-0.167,0.125C49.677,67.975,49.72,67.646,49.762,67.322z M48.541,76.125
	c0.357-2.441,0.679-4.709,0.961-6.818c0.049,0.057,0.106,0.113,0.175,0.168c-0.36,2.369-0.711,4.658-1.049,6.834
	c-0.03,0.018-0.06,0.039-0.088,0.063L48.541,76.125L48.541,76.125z M48.541,78.41c0.024-0.152,0.048-0.307,0.072-0.459
	c0.044,0.029,0.089,0.061,0.137,0.088c-0.069,0.35-0.14,0.695-0.209,1.037V78.41z M48.541,84.967v-4.689
	c0.14-0.688,0.282-1.393,0.428-2.115c0.345,0.174,0.775,0.326,1.266,0.455c-0.472,2.27-0.905,4.363-1.29,6.225
	C48.805,84.883,48.669,84.922,48.541,84.967z M49.201,84.764c0.345-1.662,0.727-3.508,1.139-5.486l0.251,5.188
	C50.087,84.551,49.621,84.65,49.201,84.764z M50.824,84.426l-0.276-5.732c0.712,0.162,1.524,0.279,2.371,0.348l-0.884,5.232
	C51.614,84.316,51.209,84.367,50.824,84.426z M52.279,84.252l0.878-5.193c0.042,0.002,0.085,0.006,0.127,0.01l0.573,5.094
	C53.313,84.176,52.784,84.207,52.279,84.252z M54.686,84.146c-0.198,0-0.395,0.006-0.589,0.008l-0.571-5.074
	c0.39,0.021,0.783,0.031,1.175,0.031c0.433,0,0.869-0.012,1.299-0.039l-0.572,5.086C55.183,84.152,54.936,84.146,54.686,84.146z
	 M55.664,84.166l0.575-5.105c0.041-0.004,0.082-0.008,0.122-0.012l0.884,5.217C56.736,84.219,56.21,84.182,55.664,84.166z
	 M57.486,84.291l-0.888-5.26c0.854-0.072,1.663-0.195,2.374-0.359l-0.281,5.775C58.309,84.389,57.906,84.332,57.486,84.291z
	 M58.928,84.488l0.254-5.217c0.412,1.996,0.795,3.852,1.145,5.525C59.902,84.68,59.432,84.574,58.928,84.488z M60.979,84.996
	c-0.127-0.043-0.262-0.086-0.396-0.125c-0.389-1.873-0.826-3.984-1.301-6.275c0.492-0.127,0.92-0.281,1.266-0.455
	c0.146,0.73,0.291,1.441,0.432,2.137V84.996z M60.979,79.078c-0.072-0.35-0.143-0.701-0.213-1.059
	c0.049-0.029,0.096-0.059,0.139-0.09c0.023,0.158,0.051,0.314,0.074,0.471V79.078z M60.979,76.393
	c-0.027-0.02-0.053-0.039-0.084-0.057c-0.34-2.189-0.689-4.49-1.055-6.875c0.068-0.053,0.127-0.109,0.176-0.162
	c0.285,2.111,0.602,4.381,0.963,6.828V76.393z M61.215,79.91c0.088,0.547,0.174,1.086,0.258,1.613
	c-0.084-0.416-0.168-0.84-0.258-1.271V79.91z M61.215,85.084v-3.631c0.082,0.402,0.162,0.797,0.24,1.182
	c0.201,1,0.393,1.945,0.572,2.838C61.801,85.336,61.529,85.203,61.215,85.084z M62.404,85.746c-0.367-2.184-0.768-4.664-1.189-7.361
	v-0.652c0.373,2.5,0.783,5.178,1.234,8.057C62.434,85.775,62.418,85.76,62.404,85.746z"/>
</svg>
