<?xml version="1.0" encoding="utf-8"?>
<!-- Generator: Adobe Illustrator 13.0.0, SVG Export Plug-In . SVG Version: 6.00 Build 14948)  -->
<!DOCTYPE svg PUBLIC "-//W3C//DTD SVG 1.1//EN" "http://www.w3.org/Graphics/SVG/1.1/DTD/svg11.dtd">
<svg version="1.1" id="レイヤー_1" xmlns="http://www.w3.org/2000/svg" xmlns:xlink="http://www.w3.org/1999/xlink" x="0px"
	 y="0px" width="100px" height="100px" viewBox="-28.01 -0.5 100 100" enable-background="new -28.01 -0.5 100 100"
	 xml:space="preserve">
<circle fill="#B2B2B2" cx="49.5" cy="49.5" r="50"/>
<path d="M32.135,12.537v4.606l0.883,1.208v68.111h32.965V18.352l0.883-1.208v-4.606H32.135z M55.422,17.144h0.68v0.64h-0.68V17.144z
	 M53.328,17.144h0.681v0.64h-0.681V17.144z M51.233,17.144h0.68v0.64h-0.68V17.144z M49.086,17.144h0.062h0.618h0.055v0.64h-0.055
	h-0.618h-0.062V17.144z M46.991,17.144h0.68v0.64h-0.68V17.144z M44.897,17.144h0.68v0.64h-0.68V17.144z M35.472,17.144h0.682v0.64
	h-0.682V17.144z M34.432,17.144h0.674v0.64h-0.674V17.144z M36.186,84.518h-1.28v-2.264h1.279L36.186,84.518L36.186,84.518z
	 M36.186,81.361h-1.28v-2.264h1.279L36.186,81.361L36.186,81.361z M36.186,78.205h-1.28v-2.266h1.279L36.186,78.205L36.186,78.205z
	 M36.186,75.047h-1.28v-2.264h1.279L36.186,75.047L36.186,75.047z M36.186,71.891h-1.28v-2.266h1.279L36.186,71.891L36.186,71.891z
	 M36.186,68.732h-1.28v-2.266h1.279L36.186,68.732L36.186,68.732z M36.186,65.574h-1.28v-2.266h1.279L36.186,65.574L36.186,65.574z
	 M36.186,62.418h-1.28v-2.264h1.279L36.186,62.418L36.186,62.418z M36.186,59.262h-1.28v-2.266h1.279L36.186,59.262L36.186,59.262z
	 M36.186,56.104h-1.28V53.84h1.279L36.186,56.104L36.186,56.104z M36.186,52.947h-1.28v-2.265h1.279L36.186,52.947L36.186,52.947z
	 M36.186,49.79h-1.28v-2.265h1.279L36.186,49.79L36.186,49.79z M36.186,46.632h-1.28v-2.265h1.279L36.186,46.632L36.186,46.632z
	 M36.186,43.476h-1.28V41.21h1.279L36.186,43.476L36.186,43.476z M36.186,40.318h-1.28v-2.265h1.279L36.186,40.318L36.186,40.318z
	 M36.186,37.16h-1.28v-2.264h1.279L36.186,37.16L36.186,37.16z M36.186,34.003h-1.28v-2.264h1.279L36.186,34.003L36.186,34.003z
	 M36.186,30.847h-1.28v-2.266h1.279L36.186,30.847L36.186,30.847z M36.186,27.688h-1.28v-2.264h1.279L36.186,27.688L36.186,27.688z
	 M36.186,24.531h-1.28v-2.264h1.279L36.186,24.531L36.186,24.531z M36.186,21.375h-1.28v-2.266h1.279L36.186,21.375L36.186,21.375z
	 M36.519,17.144H37.2v0.64h-0.682V17.144z M38.178,84.518h-1.294v-2.264h1.294V84.518z M38.178,81.361h-1.294v-2.264h1.294V81.361z
	 M38.178,78.205h-1.294v-2.266h1.294V78.205z M38.178,75.047h-1.294v-2.264h1.294V75.047z M38.178,71.891h-1.294v-2.266h1.294
	V71.891z M38.178,68.732h-1.294v-2.266h1.294V68.732z M38.178,65.574h-1.294v-2.266h1.294V65.574z M38.178,62.418h-1.294v-2.264
	h1.294V62.418z M38.178,59.262h-1.294v-2.266h1.294V59.262z M38.178,56.104h-1.294V53.84h1.294V56.104z M38.178,52.947h-1.294
	v-2.265h1.294V52.947z M38.178,49.79h-1.294v-2.265h1.294V49.79z M38.178,46.632h-1.294v-2.265h1.294V46.632z M38.178,43.476h-1.294
	V41.21h1.294V43.476z M38.178,40.318h-1.294v-2.265h1.294V40.318z M38.178,37.16h-1.294v-2.264h1.294V37.16z M38.178,34.003h-1.294
	v-2.264h1.294V34.003z M38.178,30.847h-1.294v-2.266h1.294V30.847z M38.178,27.688h-1.294v-2.264h1.294V27.688z M38.178,24.531
	h-1.294v-2.264h1.294V24.531z M38.178,21.375h-1.294v-2.266h1.294V21.375z M38.247,17.783h-0.68v-0.64h0.68V17.783z M38.613,17.144
	h0.681v0.64h-0.681V17.144z M40.172,84.518h-1.294v-2.264h1.294V84.518z M40.172,81.361h-1.294v-2.264h1.294V81.361z M40.172,78.205
	h-1.294v-2.266h1.294V78.205z M40.172,75.047h-1.294v-2.264h1.294V75.047z M40.172,71.891h-1.294v-2.266h1.294V71.891z
	 M40.172,68.732h-1.294v-2.266h1.294V68.732z M40.172,65.574h-1.294v-2.266h1.294V65.574z M40.172,62.418h-1.294v-2.264h1.294
	V62.418z M40.172,59.262h-1.294v-2.266h1.294V59.262z M40.172,56.104h-1.294V53.84h1.294V56.104z M40.172,52.947h-1.294v-2.265
	h1.294V52.947z M40.172,49.79h-1.294v-2.265h1.294V49.79z M40.172,46.632h-1.294v-2.265h1.294V46.632z M40.172,43.476h-1.294V41.21
	h1.294V43.476z M40.172,40.318h-1.294v-2.265h1.294V40.318z M40.172,37.16h-1.294v-2.264h1.294V37.16z M40.172,34.003h-1.294v-2.264
	h1.294V34.003z M40.172,30.847h-1.294v-2.266h1.294V30.847z M40.172,27.688h-1.294v-2.264h1.294V27.688z M40.172,24.531h-1.294
	v-2.264h1.294V24.531z M40.172,21.375h-1.294v-2.266h1.294V21.375z M40.341,17.783h-0.679v-0.64h0.679V17.783z M40.708,17.144h0.68
	v0.64h-0.68V17.144z M42.165,84.518H40.87v-2.264h1.295V84.518z M42.165,81.361H40.87v-2.264h1.295V81.361z M42.165,78.205H40.87
	v-2.266h1.295V78.205z M42.165,75.047H40.87v-2.264h1.295V75.047z M42.165,71.891H40.87v-2.266h1.295V71.891z M42.165,68.732H40.87
	v-2.266h1.295V68.732z M42.165,65.574H40.87v-2.266h1.295V65.574z M42.165,62.418H40.87v-2.264h1.295V62.418z M42.165,59.262H40.87
	v-2.266h1.295V59.262z M42.165,56.104H40.87V53.84h1.295V56.104z M42.165,52.947H40.87v-2.265h1.295V52.947z M42.165,49.79H40.87
	v-2.265h1.295V49.79z M42.165,46.632H40.87v-2.265h1.295V46.632z M42.165,43.476H40.87V41.21h1.295V43.476z M42.165,40.318H40.87
	v-2.265h1.295V40.318z M42.165,37.16H40.87v-2.264h1.295V37.16z M42.165,34.003H40.87v-2.264h1.295V34.003z M42.165,30.847H40.87
	v-2.266h1.295V30.847z M42.165,27.688H40.87v-2.264h1.295V27.688z M42.165,24.531H40.87v-2.264h1.295V24.531z M42.165,21.375H40.87
	v-2.266h1.295V21.375z M42.436,17.783h-0.68v-0.64h0.68V17.783z M42.802,17.144h0.682v0.64h-0.682V17.144z M44.158,84.518h-1.295
	v-2.264h1.295V84.518z M44.158,81.361h-1.295v-2.264h1.295V81.361z M44.158,78.205h-1.295v-2.266h1.295V78.205z M44.158,75.047
	h-1.295v-2.264h1.295V75.047z M44.158,71.891h-1.295v-2.266h1.295V71.891z M44.158,68.732h-1.295v-2.266h1.295V68.732z
	 M44.158,65.574h-1.295v-2.266h1.295V65.574z M44.158,62.418h-1.295v-2.264h1.295V62.418z M44.158,59.262h-1.295v-2.266h1.295
	V59.262z M44.158,56.104h-1.295V53.84h1.295V56.104z M44.158,52.947h-1.295v-2.265h1.295V52.947z M44.158,49.79h-1.295v-2.265h1.295
	V49.79z M44.158,46.632h-1.295v-2.265h1.295V46.632z M44.158,43.476h-1.295V41.21h1.295V43.476z M44.158,40.318h-1.295v-2.265h1.295
	V40.318z M44.158,37.16h-1.295v-2.264h1.295V37.16z M44.158,34.003h-1.295v-2.264h1.295V34.003z M44.158,30.847h-1.295v-2.266h1.295
	V30.847z M44.158,27.688h-1.295v-2.264h1.295V27.688z M44.158,24.531h-1.295v-2.264h1.295V24.531z M44.158,21.375h-1.295v-2.266
	h1.295V21.375z M44.53,17.783H43.85v-0.64h0.681V17.783z M46.151,84.518h-1.294v-2.264h1.294V84.518z M46.151,81.361h-1.294v-2.264
	h1.294V81.361z M46.151,78.205h-1.294v-2.266h1.294V78.205z M46.151,75.047h-1.294v-2.264h1.294V75.047z M46.151,71.891h-1.294
	v-2.266h1.294V71.891z M46.151,68.732h-1.294v-2.266h1.294V68.732z M46.151,65.574h-1.294v-2.266h1.294V65.574z M46.151,62.418
	h-1.294v-2.264h1.294V62.418z M46.151,59.262h-1.294v-2.266h1.294V59.262z M46.151,56.104h-1.294V53.84h1.294V56.104z
	 M46.151,52.947h-1.294v-2.265h1.294V52.947z M46.151,49.79h-1.294v-2.265h1.294V49.79z M46.151,46.632h-1.294v-2.265h1.294V46.632z
	 M46.151,43.476h-1.294V41.21h1.294V43.476z M46.151,40.318h-1.294v-2.265h1.294V40.318z M46.151,37.16h-1.294v-2.264h1.294V37.16z
	 M46.151,34.003h-1.294v-2.264h1.294V34.003z M46.151,30.847h-1.294v-2.266h1.294V30.847z M46.151,27.688h-1.294v-2.264h1.294
	V27.688z M46.151,24.531h-1.294v-2.264h1.294V24.531z M46.151,21.375h-1.294v-2.266h1.294V21.375z M46.625,17.783h-0.68v-0.64h0.68
	V17.783z M48.144,84.518h-1.295v-2.264h1.295V84.518z M48.144,81.361h-1.295v-2.264h1.295V81.361z M48.144,78.205h-1.295v-2.266
	h1.295V78.205z M48.144,75.047h-1.295v-2.264h1.295V75.047z M48.144,71.891h-1.295v-2.266h1.295V71.891z M48.144,68.732h-1.295
	v-2.266h1.295V68.732z M48.144,65.574h-1.295v-2.266h1.295V65.574z M48.144,62.418h-1.295v-2.264h1.295V62.418z M48.144,59.262
	h-1.295v-2.266h1.295V59.262z M48.144,56.104h-1.295V53.84h1.295V56.104z M48.144,52.947h-1.295v-2.265h1.295V52.947z M48.144,49.79
	h-1.295v-2.265h1.295V49.79z M48.144,46.632h-1.295v-2.265h1.295V46.632z M48.144,43.476h-1.295V41.21h1.295V43.476z M48.144,40.318
	h-1.295v-2.265h1.295V40.318z M48.144,37.16h-1.295v-2.264h1.295V37.16z M48.144,34.003h-1.295v-2.264h1.295V34.003z M48.144,30.847
	h-1.295v-2.266h1.295V30.847z M48.144,27.688h-1.295v-2.264h1.295V27.688z M48.144,24.531h-1.295v-2.264h1.295V24.531z
	 M48.144,21.375h-1.295v-2.266h1.295V21.375z M48.719,17.783h-0.68v-0.64h0.68V17.783z M50.137,84.518h-1.295v-2.264h1.295V84.518z
	 M50.137,81.361h-1.295v-2.264h1.295V81.361z M50.137,78.205h-1.295v-2.266h1.295V78.205z M50.137,75.047h-1.295v-2.264h1.295
	V75.047z M50.137,71.891h-1.295v-2.266h1.295V71.891z M50.137,68.732h-1.295v-2.266h1.295V68.732z M50.137,65.574h-1.295v-2.266
	h1.295V65.574z M50.137,62.418h-1.295v-2.264h1.295V62.418z M50.137,59.262h-1.295v-2.266h1.295V59.262z M50.137,56.104h-1.295
	V53.84h1.295V56.104z M50.137,52.947h-1.295v-2.265h1.295V52.947z M50.137,49.79h-1.295v-2.265h1.295V49.79z M50.137,46.632h-1.295
	v-2.265h1.295V46.632z M50.137,43.476h-1.295V41.21h1.295V43.476z M50.137,40.318h-1.295v-2.265h1.295V40.318z M50.137,37.16h-1.295
	v-2.264h1.295V37.16z M50.137,34.003h-1.295v-2.264h1.295V34.003z M50.137,30.847h-1.295v-2.266h1.295V30.847z M50.137,27.688
	h-1.295v-2.264h1.295V27.688z M50.137,24.531h-1.295v-2.264h1.295V24.531z M50.137,21.375h-1.295v-2.266h1.295V21.375z
	 M50.186,17.144h0.681v0.64h-0.681V17.144z M52.131,84.518h-1.294v-2.264h1.294V84.518z M52.131,81.361h-1.294v-2.264h1.294V81.361z
	 M52.131,78.205h-1.294v-2.266h1.294V78.205z M52.131,75.047h-1.294v-2.264h1.294V75.047z M52.131,71.891h-1.294v-2.266h1.294
	V71.891z M52.131,68.732h-1.294v-2.266h1.294V68.732z M52.131,65.574h-1.294v-2.266h1.294V65.574z M52.131,62.418h-1.294v-2.264
	h1.294V62.418z M52.131,59.262h-1.294v-2.266h1.294V59.262z M52.131,56.104h-1.294V53.84h1.294V56.104z M52.131,52.947h-1.294
	v-2.265h1.294V52.947z M52.131,49.79h-1.294v-2.265h1.294V49.79z M52.131,46.632h-1.294v-2.265h1.294V46.632z M52.131,43.476h-1.294
	V41.21h1.294V43.476z M52.131,40.318h-1.294v-2.265h1.294V40.318z M52.131,37.16h-1.294v-2.264h1.294V37.16z M52.131,34.003h-1.294
	v-2.264h1.294V34.003z M52.131,30.847h-1.294v-2.266h1.294V30.847z M52.131,27.688h-1.294v-2.264h1.294V27.688z M52.131,24.531
	h-1.294v-2.264h1.294V24.531z M52.131,21.375h-1.294v-2.266h1.294V21.375z M52.282,17.144h0.679v0.64h-0.679V17.144z M54.124,84.518
	h-1.293v-2.264h1.293V84.518z M54.124,81.361h-1.293v-2.264h1.293V81.361z M54.124,78.205h-1.293v-2.266h1.293V78.205z
	 M54.124,75.047h-1.293v-2.264h1.293V75.047z M54.124,71.891h-1.293v-2.266h1.293V71.891z M54.124,68.732h-1.293v-2.266h1.293
	V68.732z M54.124,65.574h-1.293v-2.266h1.293V65.574z M54.124,62.418h-1.293v-2.264h1.293V62.418z M54.124,59.262h-1.293v-2.266
	h1.293V59.262z M54.124,56.104h-1.293V53.84h1.293V56.104z M54.124,52.947h-1.293v-2.265h1.293V52.947z M54.124,49.79h-1.293v-2.265
	h1.293V49.79z M54.124,46.632h-1.293v-2.265h1.293V46.632z M54.124,43.476h-1.293V41.21h1.293V43.476z M54.124,40.318h-1.293v-2.265
	h1.293V40.318z M54.124,37.16h-1.293v-2.264h1.293V37.16z M54.124,34.003h-1.293v-2.264h1.293V34.003z M54.124,30.847h-1.293v-2.266
	h1.293V30.847z M54.124,27.688h-1.293v-2.264h1.293V27.688z M54.124,24.531h-1.293v-2.264h1.293V24.531z M54.124,21.375h-1.293
	v-2.266h1.293V21.375z M54.375,17.144h0.68v0.64h-0.68V17.144z M56.117,84.518h-1.294v-2.264h1.294V84.518z M56.117,81.361h-1.294
	v-2.264h1.294V81.361z M56.117,78.205h-1.294v-2.266h1.294V78.205z M56.117,75.047h-1.294v-2.264h1.294V75.047z M56.117,71.891
	h-1.294v-2.266h1.294V71.891z M56.117,68.732h-1.294v-2.266h1.294V68.732z M56.117,65.574h-1.294v-2.266h1.294V65.574z
	 M56.117,62.418h-1.294v-2.264h1.294V62.418z M56.117,59.262h-1.294v-2.266h1.294V59.262z M56.117,56.104h-1.294V53.84h1.294V56.104
	z M56.117,52.947h-1.294v-2.265h1.294V52.947z M56.117,49.79h-1.294v-2.265h1.294V49.79z M56.117,46.632h-1.294v-2.265h1.294V46.632
	z M56.117,43.476h-1.294V41.21h1.294V43.476z M56.117,40.318h-1.294v-2.265h1.294V40.318z M56.117,37.16h-1.294v-2.264h1.294V37.16z
	 M56.117,34.003h-1.294v-2.264h1.294V34.003z M56.117,30.847h-1.294v-2.266h1.294V30.847z M56.117,27.688h-1.294v-2.264h1.294
	V27.688z M56.117,24.531h-1.294v-2.264h1.294V24.531z M56.117,21.375h-1.294v-2.266h1.294V21.375z M56.47,17.144h0.681v0.64H56.47
	V17.144z M58.111,84.518h-1.295v-2.264h1.295V84.518z M58.111,81.361h-1.295v-2.264h1.295V81.361z M58.111,78.205h-1.295v-2.266
	h1.295V78.205z M58.111,75.047h-1.295v-2.264h1.295V75.047z M58.111,71.891h-1.295v-2.266h1.295V71.891z M58.111,68.732h-1.295
	v-2.266h1.295V68.732z M58.111,65.574h-1.295v-2.266h1.295V65.574z M58.111,62.418h-1.295v-2.264h1.295V62.418z M58.111,59.262
	h-1.295v-2.266h1.295V59.262z M58.111,56.104h-1.295V53.84h1.295V56.104z M58.111,52.947h-1.295v-2.265h1.295V52.947z M58.111,49.79
	h-1.295v-2.265h1.295V49.79z M58.111,46.632h-1.295v-2.265h1.295V46.632z M58.111,43.476h-1.295V41.21h1.295V43.476z M58.111,40.318
	h-1.295v-2.265h1.295V40.318z M58.111,37.16h-1.295v-2.264h1.295V37.16z M58.111,34.003h-1.295v-2.264h1.295V34.003z M58.111,30.847
	h-1.295v-2.266h1.295V30.847z M58.111,27.688h-1.295v-2.264h1.295V27.688z M58.111,24.531h-1.295v-2.264h1.295V24.531z
	 M58.111,21.375h-1.295v-2.266h1.295V21.375z M58.198,17.783h-0.683v-0.64h0.683V17.783z M58.565,17.144h0.679v0.64h-0.679V17.144z
	 M60.104,84.518h-1.296v-2.264h1.296V84.518z M60.104,81.361h-1.296v-2.264h1.296V81.361z M60.104,78.205h-1.296v-2.266h1.296
	V78.205z M60.104,75.047h-1.296v-2.264h1.296V75.047z M60.104,71.891h-1.296v-2.266h1.296V71.891z M60.104,68.732h-1.296v-2.266
	h1.296V68.732z M60.104,65.574h-1.296v-2.266h1.296V65.574z M60.104,62.418h-1.296v-2.264h1.296V62.418z M60.104,59.262h-1.296
	v-2.266h1.296V59.262z M60.104,56.104h-1.296V53.84h1.296V56.104z M60.104,52.947h-1.296v-2.265h1.296V52.947z M60.104,49.79h-1.296
	v-2.265h1.296V49.79z M60.104,46.632h-1.296v-2.265h1.296V46.632z M60.104,43.476h-1.296V41.21h1.296V43.476z M60.104,40.318h-1.296
	v-2.265h1.296V40.318z M60.104,37.16h-1.296v-2.264h1.296V37.16z M60.104,34.003h-1.296v-2.264h1.296V34.003z M60.104,30.847h-1.296
	v-2.266h1.296V30.847z M60.104,27.688h-1.296v-2.264h1.296V27.688z M60.104,24.531h-1.296v-2.264h1.296V24.531z M60.104,21.375
	h-1.296v-2.266h1.296V21.375z M60.292,17.783h-0.681v-0.64h0.681V17.783z M60.659,17.144h0.679v0.64h-0.679V17.144z M62.097,84.518
	h-1.295v-2.264h1.295V84.518z M62.097,81.361h-1.295v-2.264h1.295V81.361z M62.097,78.205h-1.295v-2.266h1.295V78.205z
	 M62.097,75.047h-1.295v-2.264h1.295V75.047z M62.097,71.891h-1.295v-2.266h1.295V71.891z M62.097,68.732h-1.295v-2.266h1.295
	V68.732z M62.097,65.574h-1.295v-2.266h1.295V65.574z M62.097,62.418h-1.295v-2.264h1.295V62.418z M62.097,59.262h-1.295v-2.266
	h1.295V59.262z M62.097,56.104h-1.295V53.84h1.295V56.104z M62.097,52.947h-1.295v-2.265h1.295V52.947z M62.097,49.79h-1.295v-2.265
	h1.295V49.79z M62.097,46.632h-1.295v-2.265h1.295V46.632z M62.097,43.476h-1.295V41.21h1.295V43.476z M62.097,40.318h-1.295v-2.265
	h1.295V40.318z M62.097,37.16h-1.295v-2.264h1.295V37.16z M62.097,34.003h-1.295v-2.264h1.295V34.003z M62.097,30.847h-1.295v-2.266
	h1.295V30.847z M62.097,27.688h-1.295v-2.264h1.295V27.688z M62.097,24.531h-1.295v-2.264h1.295V24.531z M62.097,21.375h-1.295
	v-2.266h1.295V21.375z M62.386,17.783h-0.681v-0.64h0.68L62.386,17.783L62.386,17.783z M62.752,17.144h0.681v0.64h-0.681V17.144z
	 M64.09,84.518h-1.295v-2.264h1.295V84.518z M64.09,81.361h-1.295v-2.264h1.295V81.361z M64.09,78.205h-1.295v-2.266h1.295V78.205z
	 M64.09,75.047h-1.295v-2.264h1.295V75.047z M64.09,71.891h-1.295v-2.266h1.295V71.891z M64.09,68.732h-1.295v-2.266h1.295V68.732z
	 M64.09,65.574h-1.295v-2.266h1.295V65.574z M64.09,62.418h-1.295v-2.264h1.295V62.418z M64.09,59.262h-1.295v-2.266h1.295V59.262z
	 M64.09,56.104h-1.295V53.84h1.295V56.104z M64.09,52.947h-1.295v-2.265h1.295V52.947z M64.09,49.79h-1.295v-2.265h1.295V49.79z
	 M64.09,46.632h-1.295v-2.265h1.295V46.632z M64.09,43.476h-1.295V41.21h1.295V43.476z M64.09,40.318h-1.295v-2.265h1.295V40.318z
	 M64.09,37.16h-1.295v-2.264h1.295V37.16z M64.09,34.003h-1.295v-2.264h1.295V34.003z M64.09,30.847h-1.295v-2.266h1.295V30.847z
	 M64.09,27.688h-1.295v-2.264h1.295V27.688z M64.09,24.531h-1.295v-2.264h1.295V24.531z M64.09,21.375h-1.295v-2.266h1.295V21.375z
	 M64.48,17.783H63.8v-0.64h0.681V17.783z"/>
</svg>
