<?xml version="1.0" encoding="utf-8"?>
<!-- Generator: Adobe Illustrator 16.0.0, SVG Export Plug-In . SVG Version: 6.00 Build 0)  -->
<!DOCTYPE svg PUBLIC "-//W3C//DTD SVG 1.1//EN" "http://www.w3.org/Graphics/SVG/1.1/DTD/svg11.dtd">
<svg version="1.1" id="レイヤー_1" xmlns="http://www.w3.org/2000/svg" xmlns:xlink="http://www.w3.org/1999/xlink" x="0px"
	 y="0px" width="100px" height="100px" viewBox="0 0 100 100" enable-background="new 0 0 100 100" xml:space="preserve">
<circle fill="#B2B2B2" cx="50" cy="50" r="50"/>
<path d="M80.921,53.109h-6.505V40.478h6.506c0.781,0,1.414-0.633,1.414-1.414s-0.633-1.414-1.414-1.414h-6.506V19.832
	c0-0.781-0.632-1.414-1.413-1.414c-0.78,0-1.413,0.633-1.413,1.414v17.818H35.075V13.42c0-0.781-0.633-1.414-1.414-1.414
	s-1.415,0.633-1.415,1.414v39.689H19.078c-0.781,0-1.414,0.634-1.414,1.416c0,0.781,0.633,1.414,1.414,1.414h36.441l-6.897,30.323
	c-0.175,0.763,0.304,1.52,1.064,1.694c0.106,0.022,0.211,0.036,0.314,0.036c0.646,0,1.229-0.446,1.379-1.103l7.042-30.95H71.59
	v30.639c0,0.779,0.633,1.414,1.413,1.414c0.781,0,1.413-0.635,1.413-1.414v-30.64h6.506c0.781,0,1.414-0.633,1.414-1.414
	S81.703,53.109,80.921,53.109z M35.075,40.478h13.511v12.632H35.075V40.478z M57.329,53.109c-0.008,0-0.015,0-0.021,0h-5.895V40.478
	H71.59v12.632H57.329z"/>
</svg>
