<?xml version="1.0" encoding="utf-8"?>
<!-- Generator: Adobe Illustrator 13.0.0, SVG Export Plug-In . SVG Version: 6.00 Build 14948)  -->
<!DOCTYPE svg PUBLIC "-//W3C//DTD SVG 1.1//EN" "http://www.w3.org/Graphics/SVG/1.1/DTD/svg11.dtd">
<svg version="1.1" id="レイヤー_1" xmlns="http://www.w3.org/2000/svg" xmlns:xlink="http://www.w3.org/1999/xlink" x="0px"
	 y="0px" width="100px" height="100.021px" viewBox="-0.678 -17.3 100 100.021" enable-background="new -0.678 -17.3 100 100.021"
	 xml:space="preserve">
<g>
	<path fill="#B2B2B2" d="M49.5-0.5c27.615,0,50,22.386,50,50.021c0,27.615-22.385,50.001-50,50.001c-27.614,0-50-22.387-50-50.001
		C-0.5,21.885,21.886-0.5,49.5-0.5z"/>
	<path d="M74.998,37.271c-4.885-4.068-5.967-7.324-1.086-10.849c3.523-2.44,10.072-4.97,14.645-5.838h-6.635
		c-8.139,1.356-17.77,5.296-21.027,12.075c-2.98,5.968,3.527,11.12-2.98,15.459c-12.476,8.68-52.615,6.849-46.92,24.41h5.644
		c-3.39-3.293-1.787-7.229,3.184-9.349c-3.832,3.086-5.149,5.563-0.552,9.349h12.462c-1.22-0.987-2.034-2.489-2.016-4.11
		c0.035-3.021,1.875-5.231,4.478-6.609c8.071-4.271,17.837-3.633,26.539-5.996c0,0-2.91,1.164-6.652,1.705
		c-3.744,0.542-9.583,1.475-13.691,2.631c-2.643,0.746-5.923,1.938-7.918,3.947c-2.352,2.364-2.506,7.176,0.781,8.436h11.917
		c-0.542-0.271-1.085-0.543-1.899-1.084c-10.306-7.322,7.594-11.121,12.475-12.207c4.066-0.541,8.408-1.086,12.479-2.439
		c1.896-0.542,5.018-1.897,4.881-3.255c-0.107-1.079-0.855-1.896-1.131-3.254c-1.084-5.424,4.387-1.898,7.098-5.424
		C82.05,41.34,77.71,39.441,74.998,37.271z M30.24,59.824c-2.951,0.851-9.333,4-6.775,7.947c0.192,0.295-3.644-3.438,4.145-7.382
		c5.646-2.86,18.096-3.851,18.096-3.851C40.876,57.529,35.332,58.357,30.24,59.824z M74.908,43.419
		c-7.232,4.249-7.773-10.759-5.877-7.775C72.558,37.815,78.052,41.571,74.908,43.419z"/>
</g>
</svg>
