<?xml version="1.0" encoding="utf-8"?>
<!-- Generator: Adobe Illustrator 16.0.0, SVG Export Plug-In . SVG Version: 6.00 Build 0)  -->
<!DOCTYPE svg PUBLIC "-//W3C//DTD SVG 1.1//EN" "http://www.w3.org/Graphics/SVG/1.1/DTD/svg11.dtd">
<svg version="1.1" id="レイヤー_1" xmlns="http://www.w3.org/2000/svg" xmlns:xlink="http://www.w3.org/1999/xlink" x="0px"
	 y="0px" width="100px" height="100px" viewBox="0 0 100 100" enable-background="new 0 0 100 100" xml:space="preserve">
<circle fill="#B1B0B1" cx="50" cy="50" r="50"/>
<g id="レイヤー_2">
</g>
<g>
	<g>
		<path fill="#040000" d="M68.363,36.147c-3.517-5.053-4.298-9.1-0.781-13.48c2.538-3.033,7.252-6.175,10.544-7.255h-4.777
			c-5.86,1.685-12.799,6.581-15.143,15.005c-2.148,7.416,2.54,13.82-2.148,19.211c-8.985,10.783-37.889,8.507-33.787,30.333h4.063
			c-2.44-4.092-1.286-8.984,2.292-11.619c-2.758,3.836-3.707,6.916-0.396,11.619h8.976c-0.879-1.229-1.465-3.096-1.451-5.111
			c0.023-3.752,1.348-6.498,3.224-8.213c5.812-5.309,12.847-4.512,19.11-7.447c0,0-2.094,1.443-4.791,2.115
			c-2.696,0.678-6.899,1.836-9.86,3.271c-1.904,0.926-4.266,2.412-5.702,4.904c-1.693,2.939-1.804,8.92,0.563,10.484h8.581
			c-0.391-0.34-0.781-0.674-1.367-1.35c-7.422-9.098,5.469-13.818,8.984-15.168c2.93-0.67,6.054-1.346,8.985-3.033
			c1.365-0.67,3.612-2.357,3.516-4.043c-0.078-1.342-0.619-2.357-0.814-4.043c-0.782-6.742,3.157-2.359,5.11-6.742
			C73.44,41.204,70.315,38.844,68.363,36.147z M36.13,64.172c-2.125,1.059-6.719,4.977-4.879,9.879
			c0.138,0.367-2.624-4.275,2.985-9.174c4.066-3.551,13.03-4.785,13.03-4.785C43.79,61.32,39.797,62.348,36.13,64.172z
			 M68.299,43.788c-5.209,5.279-5.6-13.371-4.232-9.664C66.605,36.821,70.563,41.492,68.299,43.788z"/>
	</g>
	<path fill="#040000" d="M56.663,87.076H26.08c0.326,0.357,0.657,0.693,0.986,1.012h31.39
		C57.874,87.775,57.272,87.438,56.663,87.076z"/>
	<path fill="#040000" d="M52.563,84.334c-0.146-0.113-0.304-0.227-0.459-0.342H23.915c0.263,0.52,0.526,0.992,0.767,1.342
		c0.072,0.105,0.149,0.203,0.223,0.305h29.478C53.739,85.207,53.121,84.768,52.563,84.334z"/>
	<path fill="#040000" d="M47.692,80.707H22.514c0.283,0.809,0.695,1.82,1.137,2.75h27.714C50.143,82.584,48.803,81.66,47.692,80.707
		z"/>
</g>
</svg>
